<svg width="256" height="101" viewBox="0 0 256 101" fill="none" xmlns="http://www.w3.org/2000/svg">
<rect width="120" height="42.4186" fill="white"/>
<g clip-path="url(#clip0_1_4911)">
<path d="M52.5551 21.2189C52.5551 25.8795 48.8823 29.3138 44.375 29.3138C39.8676 29.3138 36.1948 25.8795 36.1948 21.2189C36.1948 16.5255 39.8676 13.124 44.375 13.124C48.8823 13.124 52.5551 16.5255 52.5551 21.2189ZM48.9743 21.2189C48.9743 18.3065 46.8456 16.3138 44.375 16.3138C41.9044 16.3138 39.7757 18.3065 39.7757 21.2189C39.7757 24.1021 41.9044 26.124 44.375 26.124C46.8456 26.124 48.9743 24.0985 48.9743 21.2189Z" fill="#EA4335"/>
<path d="M70.2022 21.2189C70.2022 25.8795 66.5294 29.3138 62.022 29.3138C57.5147 29.3138 53.8419 25.8795 53.8419 21.2189C53.8419 16.5291 57.5147 13.124 62.022 13.124C66.5294 13.124 70.2022 16.5255 70.2022 21.2189ZM66.6213 21.2189C66.6213 18.3065 64.4926 16.3138 62.022 16.3138C59.5515 16.3138 57.4228 18.3065 57.4228 21.2189C57.4228 24.1021 59.5515 26.124 62.022 26.124C64.4926 26.124 66.6213 24.0985 66.6213 21.2189Z" fill="#FBBC05"/>
<path d="M87.114 13.6131V28.1459C87.114 34.124 83.5625 36.5656 79.3639 36.5656C75.4117 36.5656 73.0331 33.9415 72.136 31.7956L75.2536 30.5072C75.8088 31.8248 77.1691 33.3795 79.3603 33.3795C82.0478 33.3795 83.7132 31.7335 83.7132 28.635V27.4707H83.5882C82.7867 28.4525 81.2426 29.3102 79.2941 29.3102C75.2169 29.3102 71.4816 25.7846 71.4816 21.2481C71.4816 16.6788 75.2169 13.124 79.2941 13.124C81.2389 13.124 82.7831 13.9817 83.5882 14.9342H83.7132V13.6167H87.114V13.6131ZM83.9669 21.2481C83.9669 18.3977 82.0514 16.3138 79.6139 16.3138C77.1434 16.3138 75.0735 18.3977 75.0735 21.2481C75.0735 24.0693 77.1434 26.124 79.6139 26.124C82.0514 26.124 83.9669 24.0693 83.9669 21.2481Z" fill="#4285F4"/>
<path d="M92.7206 5.09497V28.8176H89.228V5.09497H92.7206Z" fill="#34A853"/>
<path d="M106.331 23.8831L109.11 25.7226C108.213 27.0401 106.052 29.3101 102.316 29.3101C97.684 29.3101 94.2244 25.7554 94.2244 21.2153C94.2244 16.4014 97.7134 13.1204 101.916 13.1204C106.147 13.1204 108.217 16.4634 108.894 18.27L109.265 19.1897L98.3641 23.6715C99.1987 25.2955 100.496 26.124 102.316 26.124C104.14 26.124 105.405 25.2335 106.331 23.8831ZM97.7759 20.9707L105.063 17.9671C104.662 16.9561 103.456 16.2517 102.037 16.2517C100.217 16.2517 97.684 17.8466 97.7759 20.9707Z" fill="#EA4335"/>
<path d="M22.9744 19.1132V15.6789H34.6325C34.7465 16.2775 34.8053 16.9855 34.8053 17.7519C34.8053 20.3286 34.0957 23.5147 31.809 25.7848C29.5847 28.084 26.7428 29.3103 22.9781 29.3103C16.0002 29.3103 10.1325 23.668 10.1325 16.741C10.1325 9.81397 16.0002 4.17163 22.9781 4.17163C26.8384 4.17163 29.5884 5.67528 31.6546 7.63513L29.2134 10.0585C27.7318 8.67893 25.7244 7.60594 22.9744 7.60594C17.8788 7.60594 13.8935 11.6826 13.8935 16.741C13.8935 21.7994 17.8788 25.876 22.9744 25.876C26.2796 25.876 28.1619 24.5585 29.3678 23.3614C30.3457 22.3906 30.9891 21.0037 31.2428 19.1096L22.9744 19.1132Z" fill="#4285F4"/>
</g>
<rect width="120" height="42.4186" transform="translate(136)" fill="white"/>
<g clip-path="url(#clip1_1_4911)">
<path d="M181.298 23.2919L180.702 24.9794H180.652C180.553 24.5989 180.371 24.0198 180.073 23.325L176.878 15.3013H173.748V28.0896H175.818V20.1982C175.818 19.7019 175.818 19.1394 175.801 18.4446C175.785 18.0972 175.752 17.8325 175.735 17.6339H175.785C175.884 18.1303 176 18.4942 176.083 18.7258L179.924 28.0565H181.381L185.189 18.6431C185.272 18.4281 185.354 17.9979 185.437 17.6339H185.487C185.437 18.5769 185.404 19.4207 185.387 19.9335V28.04H187.589V15.2682H184.576L181.298 23.2919ZM189.676 18.8747H191.828V28.04H189.676V18.8747ZM190.768 15.0035C190.404 15.0035 190.106 15.1358 189.858 15.3675C189.609 15.5991 189.477 15.8969 189.477 16.2608C189.477 16.6082 189.609 16.906 189.858 17.1376C190.106 17.3692 190.404 17.4851 190.768 17.4851C191.132 17.4851 191.447 17.3527 191.679 17.1376C191.927 16.906 192.06 16.6082 192.06 16.2608C192.06 15.9134 191.927 15.6156 191.679 15.3675C191.464 15.1358 191.149 15.0035 190.768 15.0035ZM199.46 18.792C199.063 18.7093 198.649 18.6597 198.252 18.6597C197.275 18.6597 196.381 18.8747 195.636 19.3049C194.891 19.735 194.295 20.3306 193.914 21.0751C193.517 21.8361 193.318 22.7129 193.318 23.7221C193.318 24.5989 193.517 25.3764 193.897 26.0878C194.278 26.7827 194.808 27.3451 195.52 27.7256C196.199 28.1062 196.993 28.3047 197.887 28.3047C198.914 28.3047 199.791 28.0896 200.487 27.6926L200.503 27.676V25.6908L200.421 25.7569C200.106 25.9886 199.742 26.1871 199.378 26.3029C198.997 26.4352 198.649 26.5014 198.351 26.5014C197.49 26.5014 196.811 26.2533 196.331 25.7073C195.834 25.1779 195.586 24.45 195.586 23.5401C195.586 22.5971 195.834 21.8526 196.348 21.3067C196.861 20.7607 197.54 20.4795 198.368 20.4795C199.063 20.4795 199.775 20.7111 200.421 21.1743L200.503 21.2405V19.1394L200.487 19.1229C200.205 19.0071 199.891 18.8747 199.46 18.792ZM206.563 18.7258C206.033 18.7258 205.536 18.8913 205.106 19.2387C204.742 19.5365 204.493 19.9666 204.278 20.4795H204.262V18.8747H202.109V28.04H204.262V23.3581C204.262 22.564 204.427 21.9022 204.791 21.4225C205.156 20.9262 205.619 20.678 206.182 20.678C206.381 20.678 206.579 20.7276 206.828 20.7607C207.06 20.8269 207.225 20.8931 207.341 20.9758L207.424 21.042V18.8913L207.374 18.8747C207.225 18.7755 206.927 18.7258 206.563 18.7258ZM212.424 18.6762C210.917 18.6762 209.709 19.1229 208.864 19.9997C208.003 20.8765 207.589 22.0842 207.589 23.6062C207.589 25.029 208.02 26.1871 208.848 27.0308C209.676 27.858 210.801 28.2881 212.209 28.2881C213.682 28.2881 214.858 27.8415 215.702 26.9481C216.563 26.0547 216.977 24.8636 216.977 23.3912C216.977 21.9353 216.579 20.7773 215.768 19.9335C214.99 19.0898 213.848 18.6762 212.424 18.6762ZM214.146 25.7239C213.748 26.2367 213.119 26.4849 212.341 26.4849C211.563 26.4849 210.934 26.2367 210.487 25.6908C210.04 25.1779 209.825 24.4334 209.825 23.4904C209.825 22.5144 210.056 21.7699 210.487 21.2405C210.934 20.7111 211.546 20.4464 212.325 20.4464C213.086 20.4464 213.682 20.6945 214.113 21.2074C214.543 21.7203 214.775 22.4647 214.775 23.4408C214.742 24.4334 214.56 25.211 214.146 25.7239ZM221.778 22.6798C221.099 22.3986 220.669 22.1835 220.47 22.0015C220.305 21.8361 220.222 21.6045 220.222 21.3067C220.222 21.0585 220.321 20.8104 220.57 20.6449C220.818 20.4795 221.099 20.3968 221.513 20.3968C221.878 20.3968 222.258 20.4629 222.623 20.5622C222.987 20.6615 223.318 20.8104 223.583 21.0089L223.666 21.0751V19.0567L223.616 19.0402C223.368 18.9409 223.036 18.8416 222.639 18.7589C222.242 18.6928 221.878 18.6597 221.579 18.6597C220.553 18.6597 219.709 18.9078 219.046 19.4538C218.384 19.9666 218.07 20.6615 218.07 21.4721C218.07 21.9022 218.136 22.2827 218.285 22.5971C218.434 22.9114 218.649 23.2092 218.947 23.4574C219.245 23.689 219.676 23.9537 220.272 24.2018C220.768 24.4169 221.149 24.5823 221.381 24.7147C221.613 24.847 221.762 24.9959 221.877 25.1117C221.96 25.2441 222.01 25.4095 222.01 25.6246C222.01 26.2367 221.546 26.5345 220.603 26.5345C220.238 26.5345 219.858 26.4683 219.411 26.3194C218.964 26.1705 218.55 25.9555 218.202 25.7073L218.119 25.6411V27.7422L218.169 27.7587C218.483 27.9076 218.864 28.0069 219.328 28.1227C219.791 28.2054 220.205 28.2716 220.57 28.2716C221.679 28.2716 222.589 28.0234 223.235 27.4775C223.897 26.9481 224.245 26.2698 224.245 25.393C224.245 24.7809 224.079 24.2349 223.715 23.8213C223.235 23.4243 222.639 23.0107 221.778 22.6798ZM229.924 18.6762C228.417 18.6762 227.209 19.1229 226.364 19.9997C225.52 20.8765 225.089 22.0842 225.089 23.6062C225.089 25.029 225.52 26.1871 226.348 27.0308C227.176 27.858 228.301 28.2881 229.709 28.2881C231.182 28.2881 232.358 27.8415 233.202 26.9481C234.063 26.0547 234.477 24.8636 234.477 23.3912C234.477 21.9353 234.079 20.7773 233.268 19.9335C232.49 19.0898 231.348 18.6762 229.924 18.6762ZM231.629 25.7239C231.232 26.2367 230.603 26.4849 229.825 26.4849C229.03 26.4849 228.417 26.2367 227.97 25.6908C227.523 25.1779 227.308 24.4334 227.308 23.4904C227.308 22.5144 227.54 21.7699 227.97 21.2405C228.417 20.7111 229.03 20.4464 229.808 20.4464C230.553 20.4464 231.166 20.6945 231.596 21.2074C232.027 21.7203 232.258 22.4647 232.258 23.4408C232.258 24.4334 232.043 25.211 231.629 25.7239ZM245.983 20.6449V18.8747H243.815V16.1616L243.748 16.1781L241.695 16.7902L241.646 16.8068V18.8747H238.401V17.7167C238.401 17.1873 238.533 16.7737 238.765 16.509C238.997 16.2443 239.344 16.1119 239.775 16.1119C240.073 16.1119 240.387 16.1781 240.735 16.327L240.818 16.3766V14.5072L240.768 14.4906C240.47 14.3914 240.073 14.3252 239.56 14.3252C238.914 14.3252 238.351 14.4741 237.838 14.7222C237.325 15.0035 236.944 15.384 236.662 15.8969C236.381 16.3932 236.232 16.9557 236.232 17.6009V18.8747H234.725V20.6284H236.232V28.04H238.401V20.6449H241.646V25.3599C241.646 27.2955 242.556 28.2716 244.378 28.2716C244.676 28.2716 244.99 28.222 245.288 28.1723C245.603 28.1062 245.834 28.0234 245.967 27.9573L245.983 27.9407V26.1705L245.901 26.2367C245.768 26.3194 245.652 26.3856 245.454 26.4352C245.288 26.4849 245.139 26.5014 245.023 26.5014C244.593 26.5014 244.295 26.4021 244.079 26.154C243.881 25.9224 243.781 25.5419 243.781 24.9794V20.6449H245.983Z" fill="#737373"/>
<path d="M146 11H156.149V21.1413H146V11Z" fill="#F25022"/>
<path d="M157.209 11H167.358V21.1413H157.209V11Z" fill="#7FBA00"/>
<path d="M146 22.2002H156.149V32.3415H146V22.2002Z" fill="#00A4EF"/>
<path d="M157.209 22.2002H167.358V32.3415H157.209V22.2002Z" fill="#FFB900"/>
</g>
<rect width="120" height="42.4186" transform="translate(0 58.4187)" fill="white"/>
<g clip-path="url(#clip2_1_4911)">
<path d="M62.7024 71.8728C62.7024 73.0019 61.7965 73.9115 60.6718 73.9115C59.5472 73.9115 58.6412 73.0019 58.6412 71.8728C58.6412 70.7437 59.5159 69.8341 60.6718 69.8341C61.8277 69.8654 62.7024 70.775 62.7024 71.8728ZM54.33 75.9816C54.33 76.1697 54.33 76.4834 54.33 76.4834C54.33 76.4834 53.3616 75.2288 51.2997 75.2288C47.8946 75.2288 45.2391 77.8321 45.2391 81.439C45.2391 85.0146 47.8633 87.6492 51.2997 87.6492C53.3928 87.6492 54.33 86.3633 54.33 86.3633V86.8965C54.33 87.1474 54.5175 87.3356 54.7674 87.3356H57.2979V75.5425C57.2979 75.5425 54.9861 75.5425 54.7674 75.5425C54.5175 75.5425 54.33 75.762 54.33 75.9816ZM54.33 83.5405C53.8614 84.2305 52.9242 84.8264 51.7996 84.8264C49.8002 84.8264 48.2694 83.5718 48.2694 81.439C48.2694 79.3062 49.8002 78.0516 51.7996 78.0516C52.893 78.0516 53.8927 78.6789 54.33 79.3376V83.5405ZM59.1723 75.5425H62.1713V87.3356H59.1723V75.5425ZM103.971 75.2288C101.909 75.2288 100.94 76.4834 100.94 76.4834V69.8654H97.9414V87.3356C97.9414 87.3356 100.253 87.3356 100.472 87.3356C100.722 87.3356 100.909 87.116 100.909 86.8965V86.3633C100.909 86.3633 101.878 87.6492 103.94 87.6492C107.345 87.6492 110 85.0146 110 81.439C110 77.8634 107.345 75.2288 103.971 75.2288ZM103.471 84.795C102.315 84.795 101.409 84.1991 100.94 83.5091V79.3062C101.409 78.6789 102.409 78.0203 103.471 78.0203C105.47 78.0203 107.001 79.2749 107.001 81.4077C107.001 83.5405 105.47 84.795 103.471 84.795ZM96.3794 80.3413V87.3669H93.3803V80.6863C93.3803 78.7417 92.7555 77.9575 91.0686 77.9575C90.1626 77.9575 89.2254 78.428 88.6318 79.118V87.3356H85.6328V75.5425H88.007C88.2569 75.5425 88.4444 75.762 88.4444 75.9816V76.4834C89.3191 75.5738 90.475 75.2288 91.6309 75.2288C92.943 75.2288 94.0364 75.6052 94.9111 76.3579C95.9733 77.2361 96.3794 78.3653 96.3794 80.3413ZM78.3538 75.2288C76.2919 75.2288 75.3235 76.4834 75.3235 76.4834V69.8654H72.3244V87.3356C72.3244 87.3356 74.6362 87.3356 74.8549 87.3356C75.1048 87.3356 75.2922 87.116 75.2922 86.8965V86.3633C75.2922 86.3633 76.2607 87.6492 78.3225 87.6492C81.7277 87.6492 84.3831 85.0146 84.3831 81.439C84.4144 77.8634 81.759 75.2288 78.3538 75.2288ZM77.8539 84.795C76.6981 84.795 75.7921 84.1991 75.3235 83.5091V79.3062C75.7921 78.6789 76.7918 78.0203 77.8539 78.0203C79.8533 78.0203 81.3841 79.2749 81.3841 81.4077C81.3841 83.5405 79.8533 84.795 77.8539 84.795ZM69.7315 75.2288C70.6374 75.2288 71.1061 75.3856 71.1061 75.3856V78.1771C71.1061 78.1771 68.6068 77.3302 67.0448 79.118V87.3669H64.0458V75.5425C64.0458 75.5425 66.3575 75.5425 66.5762 75.5425C66.8261 75.5425 67.0136 75.762 67.0136 75.9816V76.4834C67.5759 75.8247 68.7943 75.2288 69.7315 75.2288ZM38.585 86.2692C38.4288 85.8928 38.2726 85.4851 38.1164 85.1401C37.8664 84.5755 37.6165 84.0423 37.3978 83.5405L37.3666 83.5091C35.211 78.8044 32.8992 74.0369 30.4625 69.3322L30.3688 69.1441C30.1189 68.6736 29.8689 68.1717 29.619 67.6699C29.3066 67.1053 28.9942 66.5094 28.4944 65.9449C27.4947 64.6903 26.0576 64.0002 24.5269 64.0002C22.9648 64.0002 21.559 64.6903 20.5281 65.8821C20.0595 66.4467 19.7159 67.0426 19.4035 67.6072C19.1535 68.109 18.9036 68.6109 18.6537 69.0813L18.56 69.2695C16.1545 73.9742 13.8115 78.7417 11.6559 83.4464L11.6246 83.5091C11.406 84.0109 11.156 84.5441 10.9061 85.1087C10.7499 85.4537 10.5937 85.8301 10.4375 86.2378C10.0314 87.3983 9.90643 88.4961 10.0626 89.6252C10.4063 91.9776 11.9683 93.9535 14.1239 94.8317C14.9361 95.1768 15.7796 95.3336 16.6543 95.3336C16.9042 95.3336 17.2166 95.3022 17.4666 95.2708C18.4975 95.1454 19.5597 94.8004 20.5906 94.2044C21.8714 93.4831 23.0898 92.448 24.4644 90.9425C25.8389 92.448 27.0886 93.4831 28.3382 94.2044C29.3691 94.8004 30.4313 95.1454 31.4622 95.2708C31.7121 95.3022 32.0245 95.3336 32.2744 95.3336C33.1492 95.3336 34.0239 95.1768 34.8049 94.8317C36.9917 93.9535 38.5225 91.9462 38.8661 89.6252C39.116 88.5274 38.9911 87.4297 38.585 86.2692ZM24.4956 87.9001C22.8086 85.7673 21.7152 83.76 21.3404 82.0663C21.1842 81.3449 21.1529 80.7176 21.2466 80.1531C21.3091 79.6512 21.4966 79.2121 21.7465 78.8357C22.34 77.9889 23.3397 77.4557 24.4956 77.4557C25.6515 77.4557 26.6824 77.9575 27.2448 78.8357C27.4947 79.2121 27.6821 79.6512 27.7446 80.1531C27.8383 80.7176 27.8071 81.3763 27.6509 82.0663C27.276 83.7286 26.1826 85.736 24.4956 87.9001ZM36.9605 89.3743C36.7418 91.0052 35.6484 92.4167 34.1176 93.044C33.3678 93.3576 32.5556 93.4517 31.7434 93.3576C30.9623 93.2635 30.1813 93.0126 29.3691 92.5421C28.2444 91.9148 27.1198 90.9425 25.8077 89.4997C27.8696 86.9592 29.1192 84.6382 29.5878 82.5681C29.8065 81.5958 29.8377 80.7176 29.744 79.9021C29.619 79.118 29.3379 78.3966 28.9005 77.7693C27.932 76.3579 26.3076 75.5425 24.4956 75.5425C22.6837 75.5425 21.0592 76.3893 20.0907 77.7693C19.6534 78.3966 19.3722 79.118 19.2473 79.9021C19.1223 80.7176 19.1535 81.6272 19.4035 82.5681C19.8721 84.6382 21.1529 86.9906 23.1835 89.5311C21.9027 90.9739 20.7468 91.9462 19.6221 92.5735C18.8099 93.044 18.0289 93.2949 17.2479 93.389C16.4044 93.4831 15.5921 93.3576 14.8736 93.0753C13.3429 92.448 12.2494 91.0366 12.0308 89.4056C11.937 88.6215 11.9995 87.8374 12.3119 86.9592C12.4056 86.6456 12.5618 86.3319 12.718 85.9555C12.9367 85.4537 13.1867 84.9205 13.4366 84.3873L13.4678 84.3246C15.6234 79.6512 17.9352 74.8838 20.3407 70.2418L20.4344 70.0536C20.6843 69.5832 20.9342 69.0813 21.1842 68.6109C21.4341 68.109 21.7152 67.6385 22.0589 67.2308C22.7149 66.4781 23.5897 66.0703 24.5581 66.0703C25.5265 66.0703 26.4013 66.4781 27.0573 67.2308C27.401 67.6385 27.6821 68.109 27.932 68.6109C28.182 69.0813 28.4319 69.5832 28.6818 70.0536L28.7755 70.2418C31.1498 74.9152 33.4616 79.6826 35.6171 84.3559V84.3873C35.8671 84.8891 36.0857 85.4537 36.3357 85.9555C36.4919 86.3319 36.6481 86.6456 36.7418 86.9592C36.9917 87.7747 37.0854 88.5588 36.9605 89.3743Z" fill="#FF385C"/>
</g>
<rect width="120" height="42.4186" transform="translate(136 58.4187)" fill="white"/>
<g clip-path="url(#clip3_1_4911)">
<path d="M162.02 79.262C162.02 81.0063 161.56 82.5128 160.657 83.7973C159.911 84.8702 158.915 85.7455 157.756 86.3477C156.596 86.9499 155.308 87.261 154.002 87.2542C151.673 87.2542 149.739 86.4138 148.218 84.7487C146.745 83.2105 146 81.2918 146 78.9607C145.992 77.9098 146.199 76.8685 146.608 75.9005C147.016 74.9324 147.618 74.0582 148.377 73.3313C149.117 72.5766 150.003 71.9807 150.981 71.5799C151.959 71.1792 153.009 70.9819 154.065 71.0002C157.409 71.0002 160.308 73.0617 161.56 76.4076H157.218C156.252 75.3927 155.238 74.8694 154.049 74.8694C152.968 74.8777 151.933 75.3114 151.168 76.0769C150.403 76.8424 149.97 77.8782 149.961 78.9607C149.961 81.4662 151.879 83.3215 154.049 83.3215C155.523 83.3215 156.775 82.5921 157.567 81.2283H153.067V78.0885H161.988C161.972 78.5801 162.02 78.9924 162.02 79.262Z" fill="#1D1E25"/>
<path d="M162.986 87.048V71.4124H168.152C169.8 71.4124 171.052 71.5234 172.129 72.2528C173.492 73.2201 174.221 74.6949 174.221 76.6136C174.221 79.1192 172.921 81.0538 170.703 81.6722L174.506 87.0162H169.8L166.789 81.9735V87.0321H162.986V87.048ZM167.518 78.6434C169.404 78.6434 170.354 78.1201 170.354 76.7564C170.354 75.456 169.562 74.9327 167.851 74.9327H166.773V78.6276L167.518 78.6434Z" fill="#1D1E25"/>
<path d="M177.184 73.4105C178.721 71.8723 180.638 71.1428 182.872 71.1428C183.911 71.1341 184.941 71.3362 185.899 71.7368C186.858 72.1375 187.726 72.7284 188.45 73.4739C189.221 74.2077 189.835 75.0908 190.254 76.0694C190.674 77.0481 190.89 78.1019 190.89 79.1668C190.89 81.3869 190.098 83.4325 188.624 84.8914C187.886 85.6662 186.999 86.2823 186.015 86.7022C185.032 87.1221 183.973 87.3369 182.904 87.3335C180.575 87.3335 178.641 86.493 177.12 84.8914C175.647 83.3532 174.902 81.4344 174.902 79.1034C174.807 76.9309 175.647 74.9487 177.184 73.4105ZM182.872 83.4642C185.091 83.4642 186.96 81.6406 186.96 79.1034C186.96 78.0162 186.529 76.9735 185.761 76.2048C184.992 75.4361 183.951 75.0042 182.864 75.0042C181.778 75.0042 180.736 75.4361 179.968 76.2048C179.2 76.9735 178.768 78.0162 178.768 79.1034C178.721 81.6089 180.701 83.4642 182.872 83.4642Z" fill="#1D1E25"/>
<path d="M195.707 71.4124V81.0062C195.707 82.7505 196.261 83.6861 197.529 83.6861C198.892 83.6861 199.51 82.8457 199.51 81.0062V71.4124H203.313V81.1806C203.313 84.9865 200.983 87.2541 197.529 87.2541C194.011 87.2541 191.841 85.0975 191.841 81.1806V71.4124H195.707Z" fill="#1D1E25"/>
<path d="M204.453 87.048V71.4124H209.619C211.267 71.4124 212.519 71.5234 213.596 72.2528C214.959 73.2201 215.688 74.6949 215.688 76.6136C215.688 78.6751 214.785 80.3085 213.184 81.2916C212.218 81.8467 210.966 81.9894 209.318 81.9894H208.241V87.048H204.453ZM208.985 78.6434C210.871 78.6434 211.822 78.1201 211.822 76.7564C211.822 75.456 211.029 74.9327 209.318 74.9327H208.304V78.6276L208.985 78.6434Z" fill="#1D1E25"/>
<path d="M218.588 73.4105C220.125 71.8723 222.042 71.1428 224.276 71.1428C225.315 71.1341 226.345 71.3362 227.303 71.7368C228.262 72.1375 229.13 72.7284 229.854 73.4739C230.625 74.2077 231.239 75.0908 231.658 76.0694C232.078 77.0481 232.294 78.1019 232.294 79.1668C232.294 81.3869 231.502 83.4325 230.028 84.8914C229.29 85.6662 228.403 86.2823 227.419 86.7022C226.436 87.1221 225.377 87.3369 224.308 87.3335C221.978 87.3335 220.045 86.493 218.524 84.8914C217.051 83.3532 216.306 81.4344 216.306 79.1034C216.211 76.9309 217.051 74.9487 218.588 73.4105ZM224.26 83.4642C226.479 83.4642 228.348 81.6406 228.348 79.1034C228.348 78.0162 227.917 76.9735 227.149 76.2048C226.38 75.4361 225.339 75.0042 224.252 75.0042C223.166 75.0042 222.124 75.4361 221.356 76.2048C220.588 76.9735 220.156 78.0162 220.156 79.1034C220.109 81.6089 222.105 83.4642 224.26 83.4642Z" fill="#1D1E25"/>
<path d="M233.023 87.048V71.4124H236.477L242.197 80.1023V71.4124H246V87.048H242.657L236.873 78.358V87.048H233.023Z" fill="#1D1E25"/>
</g>
<defs>
<clipPath id="clip0_1_4911">
<rect width="100" height="33.5766" fill="white" transform="translate(10 4)"/>
</clipPath>
<clipPath id="clip1_1_4911">
<rect width="100" height="21.3415" fill="white" transform="translate(146 11)"/>
</clipPath>
<clipPath id="clip2_1_4911">
<rect width="100" height="31.3333" fill="white" transform="translate(10 64)"/>
</clipPath>
<clipPath id="clip3_1_4911">
<rect width="100" height="16.3333" fill="white" transform="translate(146 71.0002)"/>
</clipPath>
</defs>
</svg>
