<svg width="216" height="76" viewBox="0 0 216 76" fill="none" xmlns="http://www.w3.org/2000/svg">
<rect width="215" height="76" transform="translate(0.5)" fill="white"/>
<g clip-path="url(#clip0_1_4233)">
<path d="M43.0974 37.7796C43.0974 41.1113 42.2198 43.9886 40.4947 46.442C39.0694 48.4913 37.1677 50.163 34.9533 51.3133C32.739 52.4635 30.2784 53.0577 27.7835 53.0448C23.3346 53.0448 19.6424 51.4395 16.737 48.2593C13.9223 45.3213 12.4999 41.6565 12.4999 37.2041C12.4851 35.197 12.8801 33.208 13.6608 31.3591C14.4414 29.5101 15.5912 27.8403 17.0396 26.4519C18.4537 25.0104 20.1464 23.8723 22.0143 23.1068C23.8823 22.3414 25.8864 21.9646 27.9046 21.9995C34.2904 21.9995 39.8289 25.937 42.2198 32.3278H33.9273C32.0811 30.3893 30.1442 29.3898 27.8743 29.3898C25.8084 29.4057 23.8315 30.234 22.3706 31.6961C20.9096 33.1581 20.0819 35.1365 20.0661 37.2041C20.0661 41.9896 23.7281 45.5333 27.8743 45.5333C30.6889 45.5333 33.0799 44.1401 34.5931 41.5353H25.9979V35.5383H43.0369C43.0066 36.4772 43.0974 37.2647 43.0974 37.7796Z" fill="#1D1E25"/>
<path d="M44.9437 52.6511V22.7871H54.81C57.9575 22.7871 60.3484 22.9991 62.4064 24.3924C65.0092 26.2399 66.4013 29.0567 66.4013 32.7216C66.4013 37.5071 63.9196 41.2022 59.6826 42.3835L66.9461 52.5905H57.9575L52.2072 42.9589V52.6208H44.9437V52.6511ZM53.5994 36.5984C57.2009 36.5984 59.0168 35.5989 59.0168 32.9942C59.0168 30.5106 57.5035 29.5111 54.235 29.5111H52.177V36.5682L53.5994 36.5984Z" fill="#1D1E25"/>
<path d="M72.0609 26.6032C74.9965 23.6653 78.6585 22.272 82.9259 22.272C84.91 22.2553 86.877 22.6413 88.708 23.4065C90.539 24.1717 92.196 25.3004 93.579 26.7243C95.0518 28.1259 96.2245 29.8126 97.0257 31.6818C97.827 33.551 98.24 35.5638 98.2398 37.5977C98.2398 41.8381 96.7265 45.7452 93.9119 48.5317C92.5032 50.0116 90.8078 51.1884 88.9293 51.9904C87.0508 52.7924 85.0287 53.2026 82.9864 53.1961C78.5375 53.1961 74.8452 51.5908 71.9398 48.5317C69.1252 45.5938 67.7028 41.9289 67.7028 37.4766C67.5212 33.3271 69.1252 29.5411 72.0609 26.6032ZM82.9259 45.8058C87.1629 45.8058 90.7341 42.3227 90.7341 37.4766C90.7341 35.4001 89.9099 33.4086 88.4427 31.9403C86.9755 30.472 84.9856 29.6471 82.9107 29.6471C80.8358 29.6471 78.8459 30.472 77.3787 31.9403C75.9116 33.4086 75.0873 35.4001 75.0873 37.4766C74.9965 42.2621 78.7796 45.8058 82.9259 45.8058Z" fill="#1D1E25"/>
<path d="M107.44 22.7871V41.1114C107.44 44.443 108.499 46.23 110.921 46.23C113.523 46.23 114.704 44.6248 114.704 41.1114V22.7871H121.967V41.4445C121.967 48.7137 117.518 53.0448 110.921 53.0448C104.202 53.0448 100.056 48.9257 100.056 41.4445V22.7871H107.44Z" fill="#1D1E25"/>
<path d="M124.146 52.6511V22.7871H134.012C137.16 22.7871 139.551 22.9991 141.609 24.3924C144.212 26.2399 145.604 29.0567 145.604 32.7216C145.604 36.659 143.879 39.7787 140.822 41.6565C138.976 42.7166 136.585 42.9892 133.437 42.9892H131.379V52.6511H124.146ZM132.802 36.5984C136.403 36.5984 138.219 35.5989 138.219 32.9942C138.219 30.5106 136.706 29.5111 133.437 29.5111H131.5V36.5682L132.802 36.5984Z" fill="#1D1E25"/>
<path d="M151.142 26.6032C154.078 23.6653 157.74 22.272 162.007 22.272C163.991 22.2553 165.958 22.6413 167.789 23.4065C169.62 24.1717 171.277 25.3004 172.66 26.7243C174.133 28.1259 175.306 29.8126 176.107 31.6818C176.908 33.551 177.321 35.5638 177.321 37.5977C177.321 41.8381 175.808 45.7452 172.993 48.5317C171.585 50.0116 169.889 51.1884 168.011 51.9904C166.132 52.7924 164.11 53.2026 162.068 53.1961C157.619 53.1961 153.927 51.5908 151.021 48.5317C148.207 45.5938 146.784 41.9289 146.784 37.4766C146.603 33.3271 148.207 29.5411 151.142 26.6032ZM161.977 45.8058C166.214 45.8058 169.785 42.3227 169.785 37.4766C169.785 35.4001 168.961 33.4086 167.494 31.9403C166.027 30.472 164.037 29.6471 161.962 29.6471C159.887 29.6471 157.897 30.472 156.43 31.9403C154.963 33.4086 154.138 35.4001 154.138 37.4766C154.048 42.2621 157.861 45.8058 161.977 45.8058Z" fill="#1D1E25"/>
<path d="M178.713 52.6511V22.7871H185.311L196.236 39.3849V22.7871H203.5V52.6511H197.114L186.068 36.0533V52.6511H178.713Z" fill="#1D1E25"/>
</g>
<defs>
<clipPath id="clip0_1_4233">
<rect width="191" height="31.1967" fill="white" transform="translate(12.5 21.9998)"/>
</clipPath>
</defs>
</svg>
