<svg width="216" height="76" viewBox="0 0 216 76" fill="none" xmlns="http://www.w3.org/2000/svg">
<rect width="215" height="76" transform="translate(0.5)" fill="white"/>
<g clip-path="url(#clip0_1_4230)">
<path d="M112.646 24.3166C112.646 26.2265 111.113 27.765 109.211 27.765C107.309 27.765 105.776 26.2265 105.776 24.3166C105.776 22.4067 107.256 20.8681 109.211 20.8681C111.166 20.9212 112.646 22.4597 112.646 24.3166ZM98.4838 31.2665C98.4838 31.5848 98.4838 32.1154 98.4838 32.1154C98.4838 32.1154 96.8457 29.9932 93.3581 29.9932C87.5982 29.9932 83.1066 34.3966 83.1066 40.4977C83.1066 46.5458 87.5454 51.0022 93.3581 51.0022C96.8985 51.0022 98.4838 48.8271 98.4838 48.8271V49.729C98.4838 50.1534 98.8009 50.4717 99.2236 50.4717H103.504V30.5238C103.504 30.5238 99.5935 30.5238 99.2236 30.5238C98.8009 30.5238 98.4838 30.8951 98.4838 31.2665ZM98.4838 44.0523C97.6912 45.2195 96.1059 46.2275 94.2036 46.2275C90.8216 46.2275 88.2323 44.1053 88.2323 40.4977C88.2323 36.8901 90.8216 34.768 94.2036 34.768C96.053 34.768 97.744 35.8291 98.4838 36.9432V44.0523ZM106.674 30.5238H111.747V50.4717H106.674V30.5238ZM182.451 29.9932C178.963 29.9932 177.325 32.1154 177.325 32.1154V20.9212H172.252V50.4717C172.252 50.4717 176.162 50.4717 176.532 50.4717C176.955 50.4717 177.272 50.1003 177.272 49.729V48.8271C177.272 48.8271 178.91 51.0022 182.398 51.0022C188.158 51.0022 192.649 46.5458 192.649 40.4977C192.649 34.4497 188.158 29.9932 182.451 29.9932ZM181.605 46.1744C179.65 46.1744 178.117 45.1664 177.325 43.9992V36.8901C178.117 35.8291 179.808 34.715 181.605 34.715C184.987 34.715 187.576 36.8371 187.576 40.4447C187.576 44.0523 184.987 46.1744 181.605 46.1744ZM169.61 38.6409V50.5248H164.537V39.2245C164.537 35.9352 163.48 34.6089 160.627 34.6089C159.094 34.6089 157.509 35.4046 156.505 36.5718V50.4717H151.432V30.5238H155.448C155.871 30.5238 156.188 30.8951 156.188 31.2665V32.1154C157.667 30.5768 159.623 29.9932 161.578 29.9932C163.797 29.9932 165.647 30.6299 167.126 31.9031C168.923 33.3886 169.61 35.2985 169.61 38.6409ZM139.12 29.9932C135.632 29.9932 133.994 32.1154 133.994 32.1154V20.9212H128.921V50.4717C128.921 50.4717 132.831 50.4717 133.201 50.4717C133.624 50.4717 133.941 50.1003 133.941 49.729V48.8271C133.941 48.8271 135.579 51.0022 139.067 51.0022C144.827 51.0022 149.318 46.5458 149.318 40.4977C149.371 34.4497 144.88 29.9932 139.12 29.9932ZM138.274 46.1744C136.319 46.1744 134.787 45.1664 133.994 43.9992V36.8901C134.787 35.8291 136.478 34.715 138.274 34.715C141.656 34.715 144.245 36.8371 144.245 40.4447C144.245 44.0523 141.656 46.1744 138.274 46.1744ZM124.535 29.9932C126.068 29.9932 126.86 30.2585 126.86 30.2585V34.9802C126.86 34.9802 122.633 33.5478 119.991 36.5718V50.5248H114.918V30.5238C114.918 30.5238 118.828 30.5238 119.198 30.5238C119.621 30.5238 119.938 30.8951 119.938 31.2665V32.1154C120.889 31.0012 122.95 29.9932 124.535 29.9932ZM71.8512 48.6679C71.587 48.0313 71.3227 47.3416 71.0585 46.758C70.6358 45.803 70.213 44.9011 69.8431 44.0523L69.7903 43.9992C66.1442 36.0413 62.2338 27.9772 58.1121 20.0193L57.9536 19.7009C57.5308 18.9051 57.1081 18.0563 56.6854 17.2075C56.1569 16.2525 55.6285 15.2445 54.783 14.2895C53.0921 12.1674 50.6613 11.0002 48.072 11.0002C45.4299 11.0002 43.052 12.1674 41.3082 14.1834C40.5155 15.1384 39.9343 16.1464 39.4059 17.1013C38.9831 17.9502 38.5604 18.799 38.1376 19.5948L37.9791 19.9132C33.9102 27.8711 29.947 35.9352 26.3009 43.8931L26.2481 43.9992C25.8782 44.8481 25.4554 45.75 25.0327 46.7049C24.7685 47.2885 24.5043 47.9252 24.24 48.6149C23.5531 50.5778 23.3417 52.4347 23.6059 54.3446C24.1872 58.3236 26.8293 61.6659 30.4755 63.1514C31.8494 63.735 33.2761 64.0002 34.7557 64.0002C35.1785 64.0002 35.7069 63.9472 36.1296 63.8941C37.8734 63.6819 39.6701 63.0983 41.4139 62.0903C43.5804 60.8701 45.6413 59.1194 47.9663 56.5728C50.2914 59.1194 52.4051 60.8701 54.5188 62.0903C56.2626 63.0983 58.0593 63.6819 59.8031 63.8941C60.2258 63.9472 60.7542 64.0002 61.177 64.0002C62.6566 64.0002 64.1362 63.735 65.4572 63.1514C69.1562 61.6659 71.7455 58.2705 72.3267 54.3446C72.7495 52.4877 72.5381 50.6309 71.8512 48.6679ZM48.0192 51.4267C45.1657 47.8191 43.3162 44.4237 42.6821 41.5588C42.4179 40.3386 42.365 39.2775 42.5236 38.3226C42.6292 37.4737 42.9463 36.731 43.369 36.0943C44.3731 34.6619 46.064 33.76 48.0192 33.76C49.9744 33.76 51.7182 34.6089 52.6693 36.0943C53.0921 36.731 53.4091 37.4737 53.5148 38.3226C53.6733 39.2775 53.6205 40.3916 53.3563 41.5588C52.7222 44.3706 50.8727 47.766 48.0192 51.4267ZM69.1034 53.9202C68.7335 56.6789 66.884 59.0663 64.2947 60.1274C63.0265 60.6579 61.6526 60.8171 60.2787 60.6579C58.9576 60.4987 57.6365 60.0743 56.2626 59.2785C54.3603 58.2175 52.458 56.5728 50.2386 54.1324C53.7262 49.8351 55.8399 45.9092 56.6325 42.4076C57.0024 40.763 57.0553 39.2775 56.8967 37.8981C56.6854 36.5718 56.2098 35.3516 55.47 34.2905C53.8319 31.9031 51.0841 30.5238 48.0192 30.5238C44.9543 30.5238 42.2065 31.9562 40.5684 34.2905C39.8286 35.3516 39.353 36.5718 39.1416 37.8981C38.9303 39.2775 38.9831 40.8161 39.4059 42.4076C40.1985 45.9092 42.365 49.8881 45.7998 54.1854C43.6333 56.6259 41.6781 58.2705 39.7758 59.3316C38.4018 60.1274 37.0808 60.5518 35.7597 60.711C34.333 60.8701 32.9591 60.6579 31.7437 60.1804C29.1544 59.1194 27.3049 56.732 26.935 53.9732C26.7765 52.6469 26.8822 51.3206 27.4106 49.8351C27.5691 49.3045 27.8333 48.774 28.0976 48.1374C28.4675 47.2885 28.8902 46.3866 29.3129 45.4847L29.3658 45.3786C33.0119 37.4737 36.9223 29.4097 40.9911 21.5578L41.1497 21.2395C41.5724 20.4437 41.9951 19.5948 42.4179 18.799C42.8406 17.9502 43.3162 17.1544 43.8975 16.4647C45.0072 15.1914 46.4868 14.5017 48.1249 14.5017C49.763 14.5017 51.2426 15.1914 52.3523 16.4647C52.9335 17.1544 53.4091 17.9502 53.8319 18.799C54.2546 19.5948 54.6773 20.4437 55.1001 21.2395L55.2586 21.5578C59.2746 29.4627 63.185 37.5268 66.8311 45.4317V45.4847C67.2539 46.3336 67.6238 47.2885 68.0465 48.1374C68.3107 48.774 68.5749 49.3045 68.7335 49.8351C69.1562 51.2145 69.3147 52.5408 69.1034 53.9202Z" fill="#FF385C"/>
</g>
<defs>
<clipPath id="clip0_1_4230">
<rect width="169.149" height="53" fill="white" transform="translate(23.5 11)"/>
</clipPath>
</defs>
</svg>
