<svg width="216" height="76" viewBox="0 0 216 76" fill="none" xmlns="http://www.w3.org/2000/svg">
<rect width="215" height="76" transform="translate(0.5)" fill="white"/>
<g clip-path="url(#clip0_1_4217)">
<path fill-rule="evenodd" clip-rule="evenodd" d="M17.5 55.1714C17.5 57.5531 19.0116 59.0733 21.3798 59.0733H32.6667C39.4186 59.0733 44.9109 56.793 48.6395 52.7897H17.5V55.1714ZM32.6667 16H21.3798C19.0116 16 17.5 17.5202 17.5 19.9019V22.3343H48.6395C44.8605 18.2804 39.3682 16 32.6667 16ZM42.4922 43.6683C42.4922 45.5939 43.7015 46.8101 45.6163 46.8101H52.3682C53.124 44.8845 53.6279 42.8068 53.8798 40.5265H45.6163C43.7015 40.5265 42.4922 41.7933 42.4922 43.6683ZM33.1202 31.4051C33.1202 33.3307 34.3295 34.5469 36.2442 34.5469H53.8798C53.6279 32.2665 53.124 30.1889 52.3682 28.2632H36.2442C34.3295 28.2632 33.1202 29.5301 33.1202 31.4051ZM36.2442 43.6683C36.2442 41.7427 35.0349 40.5265 33.1202 40.5265H17.5V46.8101H33.1202C35.0349 46.8101 36.2442 45.5939 36.2442 43.6683ZM26.8721 31.4051C26.8721 29.4794 25.6628 28.2632 23.7481 28.2632H17.5V34.5469H23.7481C25.6628 34.5469 26.8721 33.3307 26.8721 31.4051Z" fill="#1F61FE"/>
<path fill-rule="evenodd" clip-rule="evenodd" d="M96.9109 36.878C97.4148 34.395 99.0272 33.1788 101.194 33.1788C103.31 33.1788 104.872 34.4963 105.326 36.878H96.9109ZM101.244 28.9221C95.8024 28.9221 92.4264 33.2801 92.4264 38.6516C92.4264 44.1751 96.0543 48.3305 101.395 48.3305C105.074 48.3305 107.341 46.6075 108.752 44.4285L105.275 42.1988C104.419 43.415 103.008 44.0231 101.547 44.0231C99.1279 44.0231 97.4652 42.8576 96.9109 40.5773H106.031H109.357C109.508 39.9692 109.558 39.3611 109.558 38.6516C109.609 33.9896 106.736 28.9221 101.244 28.9221Z" fill="#1F61FE"/>
<path fill-rule="evenodd" clip-rule="evenodd" d="M78.5194 43.9723C75.1938 43.9723 73.1783 41.5399 73.1783 38.6008C73.1783 35.611 75.2442 33.2293 78.5194 33.2293C81.7946 33.2293 83.8605 35.6617 83.8605 38.6008C83.9109 41.5906 81.8954 43.9723 78.5194 43.9723ZM83.5078 31.7598C82.1977 30.1382 80.283 29.1754 77.9148 29.1754C72.6745 29.1754 68.8954 33.432 68.8954 38.7528C68.8954 44.023 72.6241 48.3303 77.9148 48.3303C80.283 48.3303 82.1473 47.3168 83.5078 45.7459V47.8743H88.1434V22.4863H83.5078V31.7598Z" fill="#1F61FE"/>
<path fill-rule="evenodd" clip-rule="evenodd" d="M123.818 38.2969C125.078 39.1583 125.884 40.5265 125.884 42.2495C125.884 45.7967 123.516 48.2291 119.081 48.2291C114.899 48.2291 112.682 46.0501 111.775 43.9217L115.605 41.6921C115.605 41.6921 116.109 44.0231 119.031 44.0231C120.845 44.0231 121.349 43.2123 121.349 42.5028C121.349 42.1988 121.248 41.5907 119.988 41.084C117.419 40.0705 112.481 39.6144 112.481 34.9523C112.481 31.1518 115.454 29.1248 119.081 29.1248C122.508 29.1248 124.674 31.2531 125.531 32.9254L121.802 35.155C121.802 35.155 121.097 33.3308 119.132 33.3308C117.167 33.3308 117.016 34.4456 117.016 34.8003C117.016 35.7631 117.973 36.1179 120.039 36.7766C121.248 37.0807 122.508 37.4354 123.818 38.2969ZM199.5 34.1416H195.62V41.6414C195.62 43.9724 197.888 43.4657 199.5 43.4657V47.7223C199.5 47.7223 198.643 47.8743 197.182 47.8743C193.857 47.8743 191.186 46.8609 191.186 41.6414V34.1416H188.213V29.6822H191.186V24.6147H195.62V29.6822H199.5V34.1416ZM136.919 43.719C138.783 43.719 140.194 42.8069 140.899 41.2867L144.729 43.6177C143.217 46.4048 140.395 48.3304 136.919 48.3304C131.578 48.3304 127.899 44.0738 127.899 38.8036C127.899 33.5335 131.628 29.2768 136.919 29.2768C140.395 29.2768 143.167 31.2024 144.678 33.9389L140.849 36.3206C140.143 34.8003 138.733 33.8882 136.919 33.8882C134.248 33.8882 132.333 36.1179 132.333 38.8543C132.283 41.4894 134.198 43.719 136.919 43.719Z" fill="#1F61FE"/>
<path fill-rule="evenodd" clip-rule="evenodd" d="M177.733 43.6683C174.861 43.6683 173.097 41.3879 173.097 38.6008C173.097 35.8137 174.861 33.5334 177.733 33.5334C180.605 33.5334 182.368 35.8137 182.368 38.6008C182.368 41.3879 180.605 43.6683 177.733 43.6683ZM178.287 29.1247C183.175 29.1247 186.702 33.3813 186.702 38.6008C186.702 43.8203 183.225 48.077 178.287 48.077C176.12 48.077 174.357 47.1141 173.097 45.4926V54.766H168.764V29.6314H173.097V31.7091C174.357 30.0875 176.12 29.1247 178.287 29.1247ZM160.5 47.6209V29.6314H164.833V47.6209H160.5ZM152.438 32.7226C153.295 30.5436 154.957 29.2767 157.527 29.2767V34.4455C154.554 34.1415 152.388 35.7631 152.438 39.513V47.6209H148.105V29.6314H152.438V32.7226ZM160.5 27.2497V22.4863H164.934V27.3004H160.5V27.2497Z" fill="#1F61FE"/>
</g>
<defs>
<clipPath id="clip0_1_4217">
<rect width="182" height="43.0733" fill="white" transform="translate(17.5 16)"/>
</clipPath>
</defs>
</svg>
