<svg width="485" height="526" viewBox="0 0 485 526" fill="none" xmlns="http://www.w3.org/2000/svg">
<path d="M384.299 371.294L484.393 421.698C459.997 453.305 428.964 478.59 391.295 497.554C353.984 516.518 313.444 526 269.676 526C220.167 526 174.964 514.189 134.066 490.567C93.5259 466.946 61.0584 435.339 36.6628 395.748C12.6261 355.824 0.607666 311.741 0.607666 263.499C0.607666 226.902 7.60344 192.8 21.595 161.194C35.5866 129.254 54.7801 101.307 79.1756 77.3529C103.93 53.0658 132.631 34.1018 165.278 20.4611C197.924 6.82036 232.724 0 269.676 0C313.444 0 353.984 9.48196 391.295 28.4459C428.964 47.4098 459.997 72.8615 484.393 104.801L384.299 155.205C369.231 138.57 351.652 125.927 331.562 117.277C311.471 108.294 290.843 103.803 269.676 103.803C240.258 103.803 213.53 111.288 189.494 126.26C165.816 140.899 146.981 160.362 132.989 184.649C119.356 208.603 112.54 234.887 112.54 263.499C112.54 291.779 119.536 318.062 133.527 342.349C147.519 366.304 166.354 385.6 190.032 400.239C214.069 414.878 240.617 422.197 269.676 422.197C291.919 422.197 313.086 417.54 333.176 408.224C353.267 398.908 370.308 386.598 384.299 371.294Z" fill="white" fill-opacity="0.06"/>
</svg>
