<svg width="255" height="277" viewBox="0 0 255 277" fill="none" xmlns="http://www.w3.org/2000/svg">
<path d="M201.76 195.241L254.393 221.745C241.564 238.365 225.246 251.661 205.438 261.633C185.819 271.605 164.502 276.591 141.486 276.591C115.453 276.591 91.6832 270.38 70.1773 257.959C48.86 245.538 31.7873 228.918 18.9592 208.099C6.31973 187.106 0 163.925 0 138.558C0 119.314 3.67865 101.382 11.0359 84.7617C18.3932 67.9668 28.4859 53.2713 41.314 40.6751C54.3308 27.904 69.4227 17.932 86.5897 10.7592C103.757 3.58641 122.056 0 141.486 0C164.502 0 185.819 4.98598 205.438 14.9579C225.246 24.9299 241.564 38.3133 254.393 55.1082L201.76 81.6127C193.836 72.8653 184.593 66.2174 174.028 61.6687C163.464 56.9452 152.617 54.5834 141.486 54.5834C126.017 54.5834 111.963 58.5197 99.3235 66.3923C86.8727 74.09 76.9686 84.3243 69.6113 97.0955C62.4427 109.692 58.8583 123.512 58.8583 138.558C58.8583 153.428 62.537 167.249 69.8943 180.02C77.2516 192.616 87.1556 202.763 99.6064 210.461C112.246 218.159 126.206 222.007 141.486 222.007C153.183 222.007 164.313 219.558 174.877 214.66C185.442 209.761 194.402 203.288 201.76 195.241Z" fill="white" fill-opacity="0.2"/>
</svg>
