<svg width="215" height="76" viewBox="0 0 215 76" fill="none" xmlns="http://www.w3.org/2000/svg">
<rect width="215" height="76" fill="white"/>
<path d="M97.3004 38.59C97.3004 44.975 92.2687 49.68 86.0936 49.68C79.9186 49.68 74.8868 44.975 74.8868 38.59C74.8868 32.16 79.9186 27.5 86.0936 27.5C92.2687 27.5 97.3004 32.16 97.3004 38.59ZM92.3946 38.59C92.3946 34.6 89.4783 31.87 86.0936 31.87C82.7089 31.87 79.7926 34.6 79.7926 38.59C79.7926 42.54 82.7089 45.31 86.0936 45.31C89.4783 45.31 92.3946 42.535 92.3946 38.59Z" fill="#EA4335"/>
<path d="M121.477 38.59C121.477 44.975 116.445 49.68 110.27 49.68C104.095 49.68 99.0634 44.975 99.0634 38.59C99.0634 32.165 104.095 27.5 110.27 27.5C116.445 27.5 121.477 32.16 121.477 38.59ZM116.571 38.59C116.571 34.6 113.655 31.87 110.27 31.87C106.885 31.87 103.969 34.6 103.969 38.59C103.969 42.54 106.885 45.31 110.27 45.31C113.655 45.31 116.571 42.535 116.571 38.59Z" fill="#FBBC05"/>
<path d="M144.646 28.17V48.08C144.646 56.27 139.781 59.615 134.029 59.615C128.614 59.615 125.355 56.02 124.126 53.08L128.397 51.315C129.158 53.12 131.022 55.25 134.024 55.25C137.705 55.25 139.987 52.995 139.987 48.75V47.155H139.816C138.718 48.5 136.602 49.675 133.933 49.675C128.347 49.675 123.23 44.845 123.23 38.63C123.23 32.37 128.347 27.5 133.933 27.5C136.597 27.5 138.713 28.675 139.816 29.98H139.987V28.175H144.646V28.17ZM140.335 38.63C140.335 34.725 137.71 31.87 134.371 31.87C130.986 31.87 128.151 34.725 128.151 38.63C128.151 42.495 130.986 45.31 134.371 45.31C137.71 45.31 140.335 42.495 140.335 38.63Z" fill="#4285F4"/>
<path d="M152.327 16.5V49H147.542V16.5H152.327Z" fill="#34A853"/>
<path d="M170.974 42.2401L174.781 44.7601C173.552 46.5651 170.591 49.6751 165.473 49.6751C159.127 49.6751 154.387 44.8051 154.387 38.5851C154.387 31.9901 159.167 27.4951 164.924 27.4951C170.722 27.4951 173.557 32.0751 174.484 34.5501L174.993 35.8101L160.059 41.9501C161.202 44.1751 162.98 45.3101 165.473 45.3101C167.972 45.3101 169.704 44.0901 170.974 42.2401ZM159.253 38.2501L169.236 34.1351C168.687 32.7501 167.035 31.7851 165.091 31.7851C162.597 31.7851 159.127 33.9701 159.253 38.2501Z" fill="#EA4335"/>
<path d="M56.7749 35.7051V31.0001H72.7465C72.9027 31.8201 72.9832 32.7901 72.9832 33.8401C72.9832 37.3701 72.0112 41.7351 68.8783 44.8451C65.831 47.9951 61.9376 49.6751 56.78 49.6751C47.2202 49.6751 39.1815 41.9451 39.1815 32.4551C39.1815 22.9651 47.2202 15.2351 56.78 15.2351C62.0686 15.2351 65.8361 17.2951 68.6667 19.9801L65.3223 23.3001C63.2925 21.4101 60.5424 19.9401 56.7749 19.9401C49.794 19.9401 44.3341 25.5251 44.3341 32.4551C44.3341 39.3851 49.794 44.9701 56.7749 44.9701C61.303 44.9701 63.8818 43.1651 65.5339 41.5251C66.8737 40.1951 67.7551 38.2951 68.1026 35.7001L56.7749 35.7051Z" fill="#4285F4"/>
</svg>
