<svg width="137" height="46" viewBox="0 0 137 46" fill="none" xmlns="http://www.w3.org/2000/svg">
<path d="M58.3004 23.59C58.3004 29.975 53.2687 34.68 47.0936 34.68C40.9186 34.68 35.8868 29.975 35.8868 23.59C35.8868 17.16 40.9186 12.5 47.0936 12.5C53.2687 12.5 58.3004 17.16 58.3004 23.59ZM53.3946 23.59C53.3946 19.6 50.4783 16.87 47.0936 16.87C43.7089 16.87 40.7926 19.6 40.7926 23.59C40.7926 27.54 43.7089 30.31 47.0936 30.31C50.4783 30.31 53.3946 27.535 53.3946 23.59Z" fill="#EA4335"/>
<path d="M82.4769 23.59C82.4769 29.975 77.4452 34.68 71.2702 34.68C65.0951 34.68 60.0634 29.975 60.0634 23.59C60.0634 17.165 65.0951 12.5 71.2702 12.5C77.4452 12.5 82.4769 17.16 82.4769 23.59ZM77.5711 23.59C77.5711 19.6 74.6549 16.87 71.2702 16.87C67.8854 16.87 64.9692 19.6 64.9692 23.59C64.9692 27.54 67.8854 30.31 71.2702 30.31C74.6549 30.31 77.5711 27.535 77.5711 23.59Z" fill="#FBBC05"/>
<path d="M105.646 13.17V33.08C105.646 41.27 100.781 44.615 95.0286 44.615C89.614 44.615 86.3553 41.02 85.1263 38.08L89.3975 36.315C90.158 38.12 92.0216 40.25 95.0235 40.25C98.7054 40.25 100.987 37.995 100.987 33.75V32.155H100.816C99.7178 33.5 97.6024 34.675 94.9329 34.675C89.3471 34.675 84.2297 29.845 84.2297 23.63C84.2297 17.37 89.3471 12.5 94.9329 12.5C97.5973 12.5 99.7128 13.675 100.816 14.98H100.987V13.175H105.646V13.17ZM101.335 23.63C101.335 19.725 98.7105 16.87 95.3711 16.87C91.9864 16.87 89.1507 19.725 89.1507 23.63C89.1507 27.495 91.9864 30.31 95.3711 30.31C98.7105 30.31 101.335 27.495 101.335 23.63Z" fill="#4285F4"/>
<path d="M113.327 1.5V34H108.542V1.5H113.327Z" fill="#34A853"/>
<path d="M131.974 27.2401L135.781 29.7601C134.552 31.5651 131.591 34.6751 126.473 34.6751C120.127 34.6751 115.387 29.8051 115.387 23.5851C115.387 16.9901 120.167 12.4951 125.924 12.4951C131.722 12.4951 134.557 17.0751 135.484 19.5501L135.993 20.8101L121.059 26.9501C122.202 29.1751 123.98 30.3101 126.473 30.3101C128.972 30.3101 130.704 29.0901 131.974 27.2401ZM120.253 23.2501L130.236 19.1351C129.687 17.7501 128.035 16.7851 126.091 16.7851C123.597 16.7851 120.127 18.9701 120.253 23.2501Z" fill="#EA4335"/>
<path d="M17.7749 20.7051V16.0001H33.7465C33.9027 16.8201 33.9832 17.7901 33.9832 18.8401C33.9832 22.3701 33.0112 26.7351 29.8783 29.8451C26.831 32.9951 22.9376 34.6751 17.78 34.6751C8.2202 34.6751 0.181519 26.9451 0.181519 17.4551C0.181519 7.96511 8.2202 0.235107 17.78 0.235107C23.0686 0.235107 26.8361 2.29511 29.6667 4.98011L26.3223 8.30011C24.2925 6.41011 21.5424 4.94011 17.7749 4.94011C10.794 4.94011 5.33413 10.5251 5.33413 17.4551C5.33413 24.3851 10.794 29.9701 17.7749 29.9701C22.303 29.9701 24.8818 28.1651 26.5339 26.5251C27.8737 25.1951 28.7551 23.2951 29.1026 20.7001L17.7749 20.7051Z" fill="#4285F4"/>
</svg>
