<svg width="185" height="44" viewBox="0 0 185 44" fill="none" xmlns="http://www.w3.org/2000/svg">
<g clip-path="url(#clip0_1_4103)">
<mask id="mask0_1_4103" style="mask-type:luminance" maskUnits="userSpaceOnUse" x="54" y="14" width="16" height="19">
<path d="M56.767 31.9037C56.0897 31.644 55.6466 31.0962 55.6466 30.366C55.6466 29.4803 56.3758 28.7511 57.262 28.7511C57.5224 28.7511 57.7304 28.8029 57.9131 28.8809C59.0597 29.4023 60.2838 29.7148 61.7692 29.7148C64.4784 29.7148 65.7553 28.4122 65.7553 25.9098V25.2323C64.5821 26.6401 63.3065 27.4994 61.1962 27.4994C57.9393 27.4994 54.9946 25.1279 54.9946 20.9841V20.9323C54.9946 16.7623 57.9912 14.417 61.1962 14.417C63.358 14.417 64.6349 15.329 65.7025 16.5016V16.4754C65.7025 15.4072 66.5887 14.5215 67.6829 14.5215C68.7771 14.5215 69.662 15.4072 69.662 16.5016V25.493C69.662 27.9954 69.0641 29.8193 67.8909 30.9917C66.5887 32.2952 64.5821 32.8684 61.8735 32.8684C60.023 32.8684 58.4081 32.5559 56.767 31.9037ZM65.7553 20.9841V20.9323C65.7553 19.0295 64.2699 17.7007 62.3423 17.7007C60.4147 17.7007 58.9554 19.0295 58.9554 20.9323V20.9841C58.9554 22.9124 60.4147 24.2159 62.3423 24.2159C64.2699 24.2159 65.7553 22.887 65.7553 20.9841Z" fill="white"/>
</mask>
<g mask="url(#mask0_1_4103)">
<mask id="mask1_1_4103" style="mask-type:luminance" maskUnits="userSpaceOnUse" x="0" y="-1" width="185" height="45">
<path d="M0 43.2905H185V-0.000148773H0V43.2905Z" fill="white"/>
</mask>
<g mask="url(#mask1_1_4103)">
<path d="M50.4824 37.3774H74.1741V9.90716H50.4824V37.3774Z" fill="#4B4B4B"/>
</g>
</g>
<mask id="mask2_1_4103" style="mask-type:luminance" maskUnits="userSpaceOnUse" x="71" y="14" width="10" height="15">
<path d="M71.9041 16.5015C71.9041 15.407 72.7893 14.5214 73.8845 14.5214C74.9782 14.5214 75.8635 15.407 75.8635 16.5015V17.1264C76.4375 15.7722 77.3746 14.5214 78.5478 14.5214C79.7724 14.5214 80.475 15.3288 80.475 16.4488C80.475 17.4916 79.7977 18.1175 78.9909 18.3C76.9839 18.7696 75.8635 20.3063 75.8635 23.1212V26.8216C75.8635 27.9162 74.9782 28.8027 73.8845 28.8027C72.7893 28.8027 71.9041 27.9162 71.9041 26.8216V16.5015Z" fill="white"/>
</mask>
<g mask="url(#mask2_1_4103)">
<mask id="mask3_1_4103" style="mask-type:luminance" maskUnits="userSpaceOnUse" x="0" y="0" width="185" height="44">
<path d="M0 43.2908H185V9.53674e-05H0V43.2908Z" fill="white"/>
</mask>
<g mask="url(#mask3_1_4103)">
<path d="M67.392 33.3118H84.9876V10.0115H67.392V33.3118Z" fill="#4B4B4B"/>
</g>
</g>
<mask id="mask4_1_4103" style="mask-type:luminance" maskUnits="userSpaceOnUse" x="80" y="14" width="13" height="15">
<path d="M80.0066 24.6324V24.5808C80.0066 21.5317 82.325 20.1237 85.6342 20.1237C87.0407 20.1237 88.0568 20.3579 89.0472 20.6969V20.4624C89.0472 18.8212 88.0306 17.9082 86.0511 17.9082C84.9569 17.9082 84.0707 18.0655 83.3154 18.2998C83.0812 18.3779 82.9251 18.4043 82.7423 18.4043C81.8309 18.4043 81.1008 17.7004 81.1008 16.7874C81.1008 16.0846 81.543 15.485 82.1693 15.2498C83.4196 14.781 84.7746 14.5212 86.6242 14.5212C88.786 14.5212 90.3494 15.0944 91.339 16.0846C92.3817 17.1263 92.851 18.665 92.851 20.5415V26.8997C92.851 27.9687 91.991 28.8026 90.9225 28.8026C89.7764 28.8026 89.0211 27.9951 89.0211 27.1604V27.1339C88.0568 28.203 86.7284 28.906 84.7999 28.906C82.1693 28.906 80.0066 27.3955 80.0066 24.6324ZM89.0991 23.7205V23.0166C88.4218 22.7041 87.5365 22.4952 86.5714 22.4952C84.878 22.4952 83.8365 23.1728 83.8365 24.4246V24.4763C83.8365 25.5454 84.7227 26.1702 85.9983 26.1702C87.8488 26.1702 89.0991 25.1538 89.0991 23.7205Z" fill="white"/>
</mask>
<g mask="url(#mask4_1_4103)">
<mask id="mask5_1_4103" style="mask-type:luminance" maskUnits="userSpaceOnUse" x="0" y="0" width="185" height="44">
<path d="M0 43.291H185V0.000339508H0V43.291Z" fill="white"/>
</mask>
<g mask="url(#mask5_1_4103)">
<path d="M75.4944 33.4155H97.3631V10.0119H75.4944V33.4155Z" fill="#4B4B4B"/>
</g>
</g>
<mask id="mask6_1_4103" style="mask-type:luminance" maskUnits="userSpaceOnUse" x="94" y="14" width="23" height="15">
<path d="M94.9619 16.5015C94.9619 15.407 95.8471 14.5214 96.9423 14.5214C98.0365 14.5214 98.9227 15.407 98.9227 16.5015V16.6588C99.8332 15.4851 101.033 14.4169 103.038 14.4169C104.862 14.4169 106.243 15.2243 106.972 16.6323C108.197 15.199 109.656 14.4169 111.557 14.4169C114.501 14.4169 116.273 16.1891 116.273 19.5517V26.8216C116.273 27.9162 115.387 28.8027 114.293 28.8027C113.199 28.8027 112.313 27.9162 112.313 26.8216V20.8541C112.313 18.9776 111.479 18.013 109.994 18.013C108.509 18.013 107.597 18.9776 107.597 20.8541V26.8216C107.597 27.9162 106.712 28.8027 105.617 28.8027C104.523 28.8027 103.637 27.9162 103.637 26.8216V20.8541C103.637 18.9776 102.804 18.013 101.319 18.013C99.8332 18.013 98.9227 18.9776 98.9227 20.8541V26.8216C98.9227 27.9162 98.0365 28.8027 96.9423 28.8027C95.8471 28.8027 94.9619 27.9162 94.9619 26.8216V16.5015Z" fill="white"/>
</mask>
<g mask="url(#mask6_1_4103)">
<mask id="mask7_1_4103" style="mask-type:luminance" maskUnits="userSpaceOnUse" x="0" y="0" width="185" height="44">
<path d="M0 43.2908H185V9.53674e-05H0V43.2908Z" fill="white"/>
</mask>
<g mask="url(#mask7_1_4103)">
<path d="M90.4496 33.3118H120.785V9.90702H90.4496V33.3118Z" fill="#4B4B4B"/>
</g>
</g>
<mask id="mask8_1_4103" style="mask-type:luminance" maskUnits="userSpaceOnUse" x="118" y="14" width="22" height="15">
<path d="M118.41 16.5015C118.41 15.407 119.296 14.5214 120.391 14.5214C121.485 14.5214 122.371 15.407 122.371 16.5015V16.6588C123.282 15.4851 124.481 14.4169 126.487 14.4169C128.31 14.4169 129.691 15.2243 130.42 16.6323C131.645 15.199 133.104 14.4169 135.005 14.4169C137.95 14.4169 139.721 16.1891 139.721 19.5517V26.8216C139.721 27.9162 138.836 28.8027 137.741 28.8027C136.647 28.8027 135.761 27.9162 135.761 26.8216V20.8541C135.761 18.9776 134.927 18.013 133.443 18.013C131.957 18.013 131.045 18.9776 131.045 20.8541V26.8216C131.045 27.9162 130.161 28.8027 129.066 28.8027C127.971 28.8027 127.086 27.9162 127.086 26.8216V20.8541C127.086 18.9776 126.253 18.013 124.767 18.013C123.282 18.013 122.371 18.9776 122.371 20.8541V26.8216C122.371 27.9162 121.485 28.8027 120.391 28.8027C119.296 28.8027 118.41 27.9162 118.41 26.8216V16.5015Z" fill="white"/>
</mask>
<g mask="url(#mask8_1_4103)">
<mask id="mask9_1_4103" style="mask-type:luminance" maskUnits="userSpaceOnUse" x="0" y="0" width="185" height="44">
<path d="M0 43.2908H185V9.53674e-05H0V43.2908Z" fill="white"/>
</mask>
<g mask="url(#mask9_1_4103)">
<path d="M113.898 33.3118H144.234V9.90702H113.898V33.3118Z" fill="#4B4B4B"/>
</g>
</g>
<mask id="mask10_1_4103" style="mask-type:luminance" maskUnits="userSpaceOnUse" x="141" y="14" width="13" height="15">
<path d="M141.026 24.6324V24.5808C141.026 21.5317 143.344 20.1237 146.652 20.1237C148.059 20.1237 149.075 20.3579 150.065 20.6969V20.4624C150.065 18.8212 149.05 17.9082 147.069 17.9082C145.974 17.9082 145.089 18.0655 144.334 18.2998C144.1 18.3779 143.944 18.4043 143.761 18.4043C142.848 18.4043 142.119 17.7004 142.119 16.7874C142.119 16.0846 142.562 15.485 143.187 15.2498C144.439 14.781 145.793 14.5212 147.643 14.5212C149.805 14.5212 151.368 15.0944 152.357 16.0846C153.4 17.1263 153.869 18.665 153.869 20.5415V26.8997C153.869 27.9687 153.009 28.8026 151.942 28.8026C150.795 28.8026 150.04 27.9951 150.04 27.1604V27.1339C149.075 28.203 147.746 28.906 145.819 28.906C143.187 28.906 141.026 27.3955 141.026 24.6324ZM150.118 23.7205V23.0166C149.44 22.7041 148.554 22.4952 147.591 22.4952C145.896 22.4952 144.855 23.1728 144.855 24.4246V24.4763C144.855 25.5454 145.74 26.1702 147.017 26.1702C148.866 26.1702 150.118 25.1538 150.118 23.7205Z" fill="white"/>
</mask>
<g mask="url(#mask10_1_4103)">
<mask id="mask11_1_4103" style="mask-type:luminance" maskUnits="userSpaceOnUse" x="0" y="0" width="185" height="44">
<path d="M0 43.291H185V0.000339508H0V43.291Z" fill="white"/>
</mask>
<g mask="url(#mask11_1_4103)">
<path d="M136.513 33.4155H158.381V10.0119H136.513V33.4155Z" fill="#4B4B4B"/>
</g>
</g>
<mask id="mask12_1_4103" style="mask-type:luminance" maskUnits="userSpaceOnUse" x="155" y="14" width="10" height="15">
<path d="M155.979 16.5015C155.979 15.407 156.866 14.5214 157.96 14.5214C159.055 14.5214 159.94 15.407 159.94 16.5015V17.1264C160.513 15.7722 161.451 14.5214 162.624 14.5214C163.848 14.5214 164.551 15.3288 164.551 16.4488C164.551 17.4916 163.873 18.1175 163.066 18.3C161.061 18.7696 159.94 20.3063 159.94 23.1212V26.8216C159.94 27.9162 159.055 28.8027 157.96 28.8027C156.866 28.8027 155.979 27.9162 155.979 26.8216V16.5015Z" fill="white"/>
</mask>
<g mask="url(#mask12_1_4103)">
<mask id="mask13_1_4103" style="mask-type:luminance" maskUnits="userSpaceOnUse" x="0" y="0" width="185" height="44">
<path d="M0 43.2908H185V9.53674e-05H0V43.2908Z" fill="white"/>
</mask>
<g mask="url(#mask13_1_4103)">
<path d="M151.467 33.3118H169.063V10.0115H151.467V33.3118Z" fill="#4B4B4B"/>
</g>
</g>
<mask id="mask14_1_4103" style="mask-type:luminance" maskUnits="userSpaceOnUse" x="165" y="9" width="5" height="20">
<path d="M165.75 11.4449C165.75 10.3504 166.635 9.46497 167.73 9.46497C168.825 9.46497 169.711 10.3504 169.711 11.4449V26.8216C169.711 27.9162 168.825 28.8027 167.73 28.8027C166.635 28.8027 165.75 27.9162 165.75 26.8216V11.4449Z" fill="white"/>
</mask>
<g mask="url(#mask14_1_4103)">
<mask id="mask15_1_4103" style="mask-type:luminance" maskUnits="userSpaceOnUse" x="0" y="0" width="185" height="44">
<path d="M0 43.2908H185V9.53674e-05H0V43.2908Z" fill="white"/>
</mask>
<g mask="url(#mask15_1_4103)">
<path d="M161.238 33.3118H174.223V4.95511H161.238V33.3118Z" fill="#4B4B4B"/>
</g>
</g>
<mask id="mask16_1_4103" style="mask-type:luminance" maskUnits="userSpaceOnUse" x="171" y="14" width="14" height="19">
<path d="M172.863 32.5291C172.289 32.3213 171.612 31.8517 171.612 30.8879C171.612 29.9233 172.368 29.271 173.176 29.271C173.488 29.271 173.67 29.3237 173.827 29.3755C174.165 29.48 174.374 29.5326 174.661 29.5326C175.364 29.5326 175.703 29.4019 176.068 28.698L176.197 28.3856L171.43 17.3351C171.326 17.0744 171.222 16.6839 171.222 16.4232C171.222 15.3024 172.082 14.5211 173.176 14.5211C174.165 14.5211 174.738 15.0679 175.077 16.0054L178.1 24.1373L181.017 16.0316C181.33 15.1988 181.902 14.5211 182.919 14.5211C183.935 14.5211 184.794 15.3024 184.794 16.345C184.794 16.6585 184.69 17.1009 184.612 17.2834L179.74 28.985C178.568 31.8252 177.396 32.8943 175.025 32.8943C174.139 32.8943 173.514 32.7645 172.863 32.5291Z" fill="white"/>
</mask>
<g mask="url(#mask16_1_4103)">
<mask id="mask17_1_4103" style="mask-type:luminance" maskUnits="userSpaceOnUse" x="0" y="-1" width="185" height="45">
<path d="M0 43.2905H185V-0.000148773H0V43.2905Z" fill="white"/>
</mask>
<g mask="url(#mask17_1_4103)">
<path d="M166.709 37.4033H189.306V10.0112H166.709V37.4033Z" fill="#4B4B4B"/>
</g>
</g>
<mask id="mask18_1_4103" style="mask-type:luminance" maskUnits="userSpaceOnUse" x="0" y="0" width="45" height="44">
<path d="M44.0369 21.6457C44.0369 33.5996 34.35 43.291 22.3995 43.291C10.45 43.291 0.761963 33.5996 0.761963 21.6457C0.761963 9.69091 10.45 0.000339508 22.3995 0.000339508C34.35 0.000339508 44.0369 9.69091 44.0369 21.6457Z" fill="white"/>
</mask>
<g mask="url(#mask18_1_4103)">
<mask id="mask19_1_4103" style="mask-type:luminance" maskUnits="userSpaceOnUse" x="0" y="0" width="185" height="44">
<path d="M0 43.2908H185V9.53674e-05H0V43.2908Z" fill="white"/>
</mask>
<g mask="url(#mask19_1_4103)">
<path d="M0 43.2908H48.549V-4.50935H0V43.2908Z" fill="#17C399"/>
</g>
</g>
<mask id="mask20_1_4103" style="mask-type:luminance" maskUnits="userSpaceOnUse" x="9" y="8" width="26" height="27">
<path d="M25.2274 26.319C25.3553 27.0276 26.0214 27.5132 26.7411 27.5132H29.0083L30.3225 27.3288C28.2199 30.4146 24.5689 31.8347 20.5771 31.208C17.3278 30.698 14.5366 28.4986 13.3587 25.4269C10.6851 18.4542 15.7755 11.797 22.4088 11.797C25.8661 11.797 28.8986 13.82 30.6356 16.2662C31.1366 16.9716 32.0129 17.1753 32.679 16.7131C33.3112 16.2747 33.4956 15.4419 33.1156 14.7867C30.7109 11.0318 26.3901 8.62908 21.5311 8.95475C15.2045 9.37909 10.0849 14.5581 9.72076 20.8907C9.29842 28.2596 15.1413 34.276 22.4088 34.276C26.2264 34.276 29.6442 32.6131 31.9726 29.9225L31.6969 31.4659V32.8606C31.6969 33.5797 32.1814 34.2469 32.8898 34.3748C33.8203 34.5423 34.6293 33.8317 34.6293 32.9321V24.5789H26.6686C25.7692 24.5789 25.0588 25.3892 25.2274 26.319Z" fill="white"/>
</mask>
<g mask="url(#mask20_1_4103)">
<mask id="mask21_1_4103" style="mask-type:luminance" maskUnits="userSpaceOnUse" x="0" y="0" width="185" height="44">
<path d="M0 43.2908H185V9.53674e-05H0V43.2908Z" fill="white"/>
</mask>
<g mask="url(#mask21_1_4103)">
<path d="M5.18713 38.9087H39.1416V4.41567H5.18713V38.9087Z" fill="white"/>
</g>
</g>
</g>
<defs>
<clipPath id="clip0_1_4103">
<rect width="185" height="43.2907" fill="white"/>
</clipPath>
</defs>
</svg>
