<svg width="215" height="76" viewBox="0 0 215 76" fill="none" xmlns="http://www.w3.org/2000/svg">
<rect width="215" height="76" fill="white"/>
<g clip-path="url(#clip0_1_4102)">
<mask id="mask0_1_4102" style="mask-type:luminance" maskUnits="userSpaceOnUse" x="69" y="30" width="16" height="19">
<path d="M71.767 47.9037C71.0897 47.644 70.6466 47.0962 70.6466 46.366C70.6466 45.4803 71.3758 44.7511 72.262 44.7511C72.5224 44.7511 72.7304 44.8029 72.9131 44.8809C74.0597 45.4023 75.2838 45.7148 76.7692 45.7148C79.4784 45.7148 80.7553 44.4122 80.7553 41.9098V41.2323C79.5821 42.6401 78.3065 43.4994 76.1962 43.4994C72.9393 43.4994 69.9946 41.1279 69.9946 36.9841V36.9323C69.9946 32.7623 72.9912 30.417 76.1962 30.417C78.358 30.417 79.6349 31.329 80.7025 32.5016V32.4754C80.7025 31.4072 81.5887 30.5215 82.6829 30.5215C83.7771 30.5215 84.662 31.4072 84.662 32.5016V41.493C84.662 43.9954 84.0641 45.8193 82.8909 46.9917C81.5887 48.2952 79.5821 48.8684 76.8735 48.8684C75.023 48.8684 73.4081 48.5559 71.767 47.9037ZM80.7553 36.9841V36.9323C80.7553 35.0295 79.2699 33.7007 77.3423 33.7007C75.4147 33.7007 73.9554 35.0295 73.9554 36.9323V36.9841C73.9554 38.9124 75.4147 40.2159 77.3423 40.2159C79.2699 40.2159 80.7553 38.887 80.7553 36.9841Z" fill="white"/>
</mask>
<g mask="url(#mask0_1_4102)">
<mask id="mask1_1_4102" style="mask-type:luminance" maskUnits="userSpaceOnUse" x="15" y="15" width="185" height="45">
<path d="M15 59.2905H200V15.9999H15V59.2905Z" fill="white"/>
</mask>
<g mask="url(#mask1_1_4102)">
<path d="M65.4824 53.3774H89.1741V25.9072H65.4824V53.3774Z" fill="#4B4B4B"/>
</g>
</g>
<mask id="mask2_1_4102" style="mask-type:luminance" maskUnits="userSpaceOnUse" x="86" y="30" width="10" height="15">
<path d="M86.9041 32.5015C86.9041 31.407 87.7893 30.5214 88.8845 30.5214C89.9782 30.5214 90.8635 31.407 90.8635 32.5015V33.1264C91.4375 31.7722 92.3746 30.5214 93.5478 30.5214C94.7724 30.5214 95.475 31.3288 95.475 32.4488C95.475 33.4916 94.7977 34.1175 93.9909 34.3C91.9839 34.7696 90.8635 36.3063 90.8635 39.1212V42.8216C90.8635 43.9162 89.9782 44.8027 88.8845 44.8027C87.7893 44.8027 86.9041 43.9162 86.9041 42.8216V32.5015Z" fill="white"/>
</mask>
<g mask="url(#mask2_1_4102)">
<mask id="mask3_1_4102" style="mask-type:luminance" maskUnits="userSpaceOnUse" x="15" y="16" width="185" height="44">
<path d="M15 59.2908H200V16.0001H15V59.2908Z" fill="white"/>
</mask>
<g mask="url(#mask3_1_4102)">
<path d="M82.392 49.3118H99.9876V26.0115H82.392V49.3118Z" fill="#4B4B4B"/>
</g>
</g>
<mask id="mask4_1_4102" style="mask-type:luminance" maskUnits="userSpaceOnUse" x="95" y="30" width="13" height="15">
<path d="M95.0066 40.6324V40.5808C95.0066 37.5317 97.325 36.1237 100.634 36.1237C102.041 36.1237 103.057 36.3579 104.047 36.6969V36.4624C104.047 34.8212 103.031 33.9082 101.051 33.9082C99.9569 33.9082 99.0707 34.0655 98.3154 34.2998C98.0812 34.3779 97.9251 34.4043 97.7423 34.4043C96.8309 34.4043 96.1008 33.7004 96.1008 32.7874C96.1008 32.0846 96.543 31.485 97.1693 31.2498C98.4196 30.781 99.7746 30.5212 101.624 30.5212C103.786 30.5212 105.349 31.0944 106.339 32.0846C107.382 33.1263 107.851 34.665 107.851 36.5415V42.8997C107.851 43.9687 106.991 44.8026 105.922 44.8026C104.776 44.8026 104.021 43.9951 104.021 43.1604V43.1339C103.057 44.203 101.728 44.906 99.7999 44.906C97.1693 44.906 95.0066 43.3955 95.0066 40.6324ZM104.099 39.7205V39.0166C103.422 38.7041 102.537 38.4952 101.571 38.4952C99.878 38.4952 98.8365 39.1728 98.8365 40.4246V40.4763C98.8365 41.5454 99.7227 42.1702 100.998 42.1702C102.849 42.1702 104.099 41.1538 104.099 39.7205Z" fill="white"/>
</mask>
<g mask="url(#mask4_1_4102)">
<mask id="mask5_1_4102" style="mask-type:luminance" maskUnits="userSpaceOnUse" x="15" y="16" width="185" height="44">
<path d="M15 59.291H200V16.0003H15V59.291Z" fill="white"/>
</mask>
<g mask="url(#mask5_1_4102)">
<path d="M90.4944 49.4155H112.363V26.0119H90.4944V49.4155Z" fill="#4B4B4B"/>
</g>
</g>
<mask id="mask6_1_4102" style="mask-type:luminance" maskUnits="userSpaceOnUse" x="109" y="30" width="23" height="15">
<path d="M109.962 32.5015C109.962 31.407 110.847 30.5214 111.942 30.5214C113.036 30.5214 113.923 31.407 113.923 32.5015V32.6588C114.833 31.4851 116.033 30.4169 118.038 30.4169C119.862 30.4169 121.243 31.2243 121.972 32.6323C123.197 31.199 124.656 30.4169 126.557 30.4169C129.501 30.4169 131.273 32.1891 131.273 35.5517V42.8216C131.273 43.9162 130.387 44.8027 129.293 44.8027C128.199 44.8027 127.313 43.9162 127.313 42.8216V36.8541C127.313 34.9776 126.479 34.013 124.994 34.013C123.509 34.013 122.597 34.9776 122.597 36.8541V42.8216C122.597 43.9162 121.712 44.8027 120.617 44.8027C119.523 44.8027 118.637 43.9162 118.637 42.8216V36.8541C118.637 34.9776 117.804 34.013 116.319 34.013C114.833 34.013 113.923 34.9776 113.923 36.8541V42.8216C113.923 43.9162 113.036 44.8027 111.942 44.8027C110.847 44.8027 109.962 43.9162 109.962 42.8216V32.5015Z" fill="white"/>
</mask>
<g mask="url(#mask6_1_4102)">
<mask id="mask7_1_4102" style="mask-type:luminance" maskUnits="userSpaceOnUse" x="15" y="16" width="185" height="44">
<path d="M15 59.2908H200V16.0001H15V59.2908Z" fill="white"/>
</mask>
<g mask="url(#mask7_1_4102)">
<path d="M105.45 49.3118H135.785V25.907H105.45V49.3118Z" fill="#4B4B4B"/>
</g>
</g>
<mask id="mask8_1_4102" style="mask-type:luminance" maskUnits="userSpaceOnUse" x="133" y="30" width="22" height="15">
<path d="M133.41 32.5015C133.41 31.407 134.296 30.5214 135.391 30.5214C136.485 30.5214 137.371 31.407 137.371 32.5015V32.6588C138.282 31.4851 139.481 30.4169 141.487 30.4169C143.31 30.4169 144.691 31.2243 145.42 32.6323C146.645 31.199 148.104 30.4169 150.005 30.4169C152.95 30.4169 154.721 32.1891 154.721 35.5517V42.8216C154.721 43.9162 153.836 44.8027 152.741 44.8027C151.647 44.8027 150.761 43.9162 150.761 42.8216V36.8541C150.761 34.9776 149.927 34.013 148.443 34.013C146.957 34.013 146.045 34.9776 146.045 36.8541V42.8216C146.045 43.9162 145.161 44.8027 144.066 44.8027C142.971 44.8027 142.086 43.9162 142.086 42.8216V36.8541C142.086 34.9776 141.253 34.013 139.767 34.013C138.282 34.013 137.371 34.9776 137.371 36.8541V42.8216C137.371 43.9162 136.485 44.8027 135.391 44.8027C134.296 44.8027 133.41 43.9162 133.41 42.8216V32.5015Z" fill="white"/>
</mask>
<g mask="url(#mask8_1_4102)">
<mask id="mask9_1_4102" style="mask-type:luminance" maskUnits="userSpaceOnUse" x="15" y="16" width="185" height="44">
<path d="M15 59.2908H200V16.0001H15V59.2908Z" fill="white"/>
</mask>
<g mask="url(#mask9_1_4102)">
<path d="M128.898 49.3118H159.234V25.907H128.898V49.3118Z" fill="#4B4B4B"/>
</g>
</g>
<mask id="mask10_1_4102" style="mask-type:luminance" maskUnits="userSpaceOnUse" x="156" y="30" width="13" height="15">
<path d="M156.026 40.6324V40.5808C156.026 37.5317 158.344 36.1237 161.652 36.1237C163.059 36.1237 164.075 36.3579 165.065 36.6969V36.4624C165.065 34.8212 164.05 33.9082 162.069 33.9082C160.974 33.9082 160.089 34.0655 159.334 34.2998C159.1 34.3779 158.944 34.4043 158.761 34.4043C157.848 34.4043 157.119 33.7004 157.119 32.7874C157.119 32.0846 157.562 31.485 158.187 31.2498C159.439 30.781 160.793 30.5212 162.643 30.5212C164.805 30.5212 166.368 31.0944 167.357 32.0846C168.4 33.1263 168.869 34.665 168.869 36.5415V42.8997C168.869 43.9687 168.009 44.8026 166.942 44.8026C165.795 44.8026 165.04 43.9951 165.04 43.1604V43.1339C164.075 44.203 162.746 44.906 160.819 44.906C158.187 44.906 156.026 43.3955 156.026 40.6324ZM165.118 39.7205V39.0166C164.44 38.7041 163.554 38.4952 162.591 38.4952C160.896 38.4952 159.855 39.1728 159.855 40.4246V40.4763C159.855 41.5454 160.74 42.1702 162.017 42.1702C163.866 42.1702 165.118 41.1538 165.118 39.7205Z" fill="white"/>
</mask>
<g mask="url(#mask10_1_4102)">
<mask id="mask11_1_4102" style="mask-type:luminance" maskUnits="userSpaceOnUse" x="15" y="16" width="185" height="44">
<path d="M15 59.291H200V16.0003H15V59.291Z" fill="white"/>
</mask>
<g mask="url(#mask11_1_4102)">
<path d="M151.513 49.4155H173.381V26.0119H151.513V49.4155Z" fill="#4B4B4B"/>
</g>
</g>
<mask id="mask12_1_4102" style="mask-type:luminance" maskUnits="userSpaceOnUse" x="170" y="30" width="10" height="15">
<path d="M170.979 32.5015C170.979 31.407 171.866 30.5214 172.96 30.5214C174.055 30.5214 174.94 31.407 174.94 32.5015V33.1264C175.513 31.7722 176.451 30.5214 177.624 30.5214C178.848 30.5214 179.551 31.3288 179.551 32.4488C179.551 33.4916 178.873 34.1175 178.066 34.3C176.061 34.7696 174.94 36.3063 174.94 39.1212V42.8216C174.94 43.9162 174.055 44.8027 172.96 44.8027C171.866 44.8027 170.979 43.9162 170.979 42.8216V32.5015Z" fill="white"/>
</mask>
<g mask="url(#mask12_1_4102)">
<mask id="mask13_1_4102" style="mask-type:luminance" maskUnits="userSpaceOnUse" x="15" y="16" width="185" height="44">
<path d="M15 59.2908H200V16.0001H15V59.2908Z" fill="white"/>
</mask>
<g mask="url(#mask13_1_4102)">
<path d="M166.467 49.3118H184.063V26.0115H166.467V49.3118Z" fill="#4B4B4B"/>
</g>
</g>
<mask id="mask14_1_4102" style="mask-type:luminance" maskUnits="userSpaceOnUse" x="180" y="25" width="5" height="20">
<path d="M180.75 27.4449C180.75 26.3504 181.635 25.465 182.73 25.465C183.825 25.465 184.711 26.3504 184.711 27.4449V42.8216C184.711 43.9162 183.825 44.8027 182.73 44.8027C181.635 44.8027 180.75 43.9162 180.75 42.8216V27.4449Z" fill="white"/>
</mask>
<g mask="url(#mask14_1_4102)">
<mask id="mask15_1_4102" style="mask-type:luminance" maskUnits="userSpaceOnUse" x="15" y="16" width="185" height="44">
<path d="M15 59.2908H200V16.0001H15V59.2908Z" fill="white"/>
</mask>
<g mask="url(#mask15_1_4102)">
<path d="M176.238 49.3118H189.223V20.9551H176.238V49.3118Z" fill="#4B4B4B"/>
</g>
</g>
<mask id="mask16_1_4102" style="mask-type:luminance" maskUnits="userSpaceOnUse" x="186" y="30" width="14" height="19">
<path d="M187.863 48.5291C187.289 48.3213 186.612 47.8517 186.612 46.8879C186.612 45.9233 187.368 45.271 188.176 45.271C188.488 45.271 188.67 45.3237 188.827 45.3755C189.165 45.48 189.374 45.5326 189.661 45.5326C190.364 45.5326 190.703 45.4019 191.068 44.698L191.197 44.3856L186.43 33.3351C186.326 33.0744 186.222 32.6839 186.222 32.4232C186.222 31.3024 187.082 30.5211 188.176 30.5211C189.165 30.5211 189.738 31.0679 190.077 32.0054L193.1 40.1373L196.017 32.0316C196.33 31.1988 196.902 30.5211 197.919 30.5211C198.935 30.5211 199.794 31.3024 199.794 32.345C199.794 32.6585 199.69 33.1009 199.612 33.2834L194.74 44.985C193.568 47.8252 192.396 48.8943 190.025 48.8943C189.139 48.8943 188.514 48.7645 187.863 48.5291Z" fill="white"/>
</mask>
<g mask="url(#mask16_1_4102)">
<mask id="mask17_1_4102" style="mask-type:luminance" maskUnits="userSpaceOnUse" x="15" y="15" width="185" height="45">
<path d="M15 59.2905H200V15.9999H15V59.2905Z" fill="white"/>
</mask>
<g mask="url(#mask17_1_4102)">
<path d="M181.709 53.4033H204.306V26.0112H181.709V53.4033Z" fill="#4B4B4B"/>
</g>
</g>
<mask id="mask18_1_4102" style="mask-type:luminance" maskUnits="userSpaceOnUse" x="15" y="16" width="45" height="44">
<path d="M59.0369 37.6457C59.0369 49.5996 49.35 59.291 37.3995 59.291C25.45 59.291 15.762 49.5996 15.762 37.6457C15.762 25.6909 25.45 16.0003 37.3995 16.0003C49.35 16.0003 59.0369 25.6909 59.0369 37.6457Z" fill="white"/>
</mask>
<g mask="url(#mask18_1_4102)">
<mask id="mask19_1_4102" style="mask-type:luminance" maskUnits="userSpaceOnUse" x="15" y="16" width="185" height="44">
<path d="M15 59.2908H200V16.0001H15V59.2908Z" fill="white"/>
</mask>
<g mask="url(#mask19_1_4102)">
<path d="M15 59.2908H63.549V11.4907H15V59.2908Z" fill="#17C399"/>
</g>
</g>
<mask id="mask20_1_4102" style="mask-type:luminance" maskUnits="userSpaceOnUse" x="24" y="24" width="26" height="27">
<path d="M40.2274 42.319C40.3553 43.0276 41.0214 43.5132 41.7411 43.5132H44.0083L45.3225 43.3288C43.2199 46.4146 39.5689 47.8347 35.5771 47.208C32.3278 46.698 29.5366 44.4986 28.3587 41.4269C25.6851 34.4542 30.7755 27.797 37.4088 27.797C40.8661 27.797 43.8986 29.82 45.6356 32.2662C46.1366 32.9716 47.0129 33.1753 47.679 32.7131C48.3112 32.2747 48.4956 31.4419 48.1156 30.7867C45.7109 27.0318 41.3901 24.6291 36.5311 24.9548C30.2045 25.3791 25.0849 30.5581 24.7208 36.8907C24.2984 44.2596 30.1413 50.276 37.4088 50.276C41.2264 50.276 44.6442 48.6131 46.9726 45.9225L46.6969 47.4659V48.8606C46.6969 49.5797 47.1814 50.2469 47.8898 50.3748C48.8203 50.5423 49.6293 49.8317 49.6293 48.9321V40.5789H41.6686C40.7692 40.5789 40.0588 41.3892 40.2274 42.319Z" fill="white"/>
</mask>
<g mask="url(#mask20_1_4102)">
<mask id="mask21_1_4102" style="mask-type:luminance" maskUnits="userSpaceOnUse" x="15" y="16" width="185" height="44">
<path d="M15 59.2908H200V16.0001H15V59.2908Z" fill="white"/>
</mask>
<g mask="url(#mask21_1_4102)">
<path d="M20.1871 54.9087H54.1416V20.4157H20.1871V54.9087Z" fill="white"/>
</g>
</g>
</g>
<defs>
<clipPath id="clip0_1_4102">
<rect width="185" height="43.2907" fill="white" transform="translate(15 16)"/>
</clipPath>
</defs>
</svg>
