<svg width="192" height="32" viewBox="0 0 192 32" fill="none" xmlns="http://www.w3.org/2000/svg">
<g clip-path="url(#clip0_1_4234)">
<path d="M31.0974 15.7796C31.0974 19.1113 30.2198 21.9886 28.4947 24.442C27.0694 26.4913 25.1677 28.163 22.9533 29.3133C20.739 30.4635 18.2784 31.0577 15.7835 31.0448C11.3346 31.0448 7.64236 29.4395 4.73696 26.2593C1.92235 23.3213 0.499913 19.6565 0.499913 15.2041C0.485115 13.197 0.880143 11.208 1.66077 9.35906C2.4414 7.51014 3.59118 5.84028 5.03961 4.45188C6.45372 3.01043 8.14635 1.87229 10.0143 1.10682C11.8823 0.341357 13.8864 -0.0353927 15.9046 -0.000460756C22.2904 -0.000460756 27.8289 3.93698 30.2198 10.3278H21.9273C20.0811 8.38932 18.1442 7.38982 15.8743 7.38982C13.8084 7.40566 11.8315 8.23404 10.3706 9.69609C8.90964 11.1581 8.0819 13.1365 8.06607 15.2041C8.06607 19.9896 11.7281 23.5333 15.8743 23.5333C18.6889 23.5333 21.0799 22.1401 22.5931 19.5353H13.9979V13.5383H31.0369C31.0066 14.4772 31.0974 15.2647 31.0974 15.7796Z" fill="#1D1E25"/>
<path d="M32.9437 30.6511V0.787109H42.81C45.9575 0.787109 48.3484 0.999126 50.4064 2.39237C53.0092 4.23994 54.4013 7.05673 54.4013 10.7216C54.4013 15.5071 51.9196 19.2022 47.6826 20.3835L54.9461 30.5905H45.9575L40.2072 20.9589V30.6208H32.9437V30.6511ZM41.5994 14.5984C45.2009 14.5984 47.0168 13.5989 47.0168 10.9942C47.0168 8.51056 45.5035 7.51105 42.235 7.51105H40.177V14.5682L41.5994 14.5984Z" fill="#1D1E25"/>
<path d="M60.0609 4.60319C62.9965 1.66525 66.6585 0.272003 70.9259 0.272003C72.91 0.255323 74.877 0.641253 76.708 1.40649C78.539 2.17173 80.196 3.3004 81.579 4.72434C83.0518 6.1259 84.2245 7.81255 85.0257 9.68178C85.827 11.551 86.24 13.5638 86.2398 15.5977C86.2398 19.8381 84.7265 23.7452 81.9119 26.5317C80.5032 28.0116 78.8078 29.1884 76.9293 29.9904C75.0508 30.7924 73.0287 31.2026 70.9864 31.1961C66.5375 31.1961 62.8452 29.5908 59.9398 26.5317C57.1252 23.5938 55.7028 19.9289 55.7028 15.4766C55.5212 11.3271 57.1252 7.54113 60.0609 4.60319ZM70.9259 23.8058C75.1629 23.8058 78.7341 20.3227 78.7341 15.4766C78.7341 13.4001 77.9099 11.4086 76.4427 9.94033C74.9755 8.47202 72.9856 7.64714 70.9107 7.64714C68.8358 7.64714 66.8459 8.47202 65.3787 9.94033C63.9116 11.4086 63.0873 13.4001 63.0873 15.4766C62.9965 20.2621 66.7796 23.8058 70.9259 23.8058Z" fill="#1D1E25"/>
<path d="M95.4401 0.787109V19.1114C95.4401 22.443 96.4994 24.23 98.9205 24.23C101.523 24.23 102.704 22.6248 102.704 19.1114V0.787109H109.967V19.4445C109.967 26.7137 105.518 31.0448 98.9205 31.0448C92.2018 31.0448 88.0555 26.9257 88.0555 19.4445V0.787109H95.4401Z" fill="#1D1E25"/>
<path d="M112.146 30.6511V0.787109H122.012C125.16 0.787109 127.551 0.999126 129.609 2.39237C132.212 4.23994 133.604 7.05673 133.604 10.7216C133.604 14.659 131.879 17.7787 128.822 19.6565C126.976 20.7166 124.585 20.9892 121.437 20.9892H119.379V30.6511H112.146ZM120.802 14.5984C124.403 14.5984 126.219 13.5989 126.219 10.9942C126.219 8.51056 124.706 7.51105 121.437 7.51105H119.5V14.5682L120.802 14.5984Z" fill="#1D1E25"/>
<path d="M139.142 4.60319C142.078 1.66525 145.74 0.272003 150.007 0.272003C151.991 0.255323 153.958 0.641253 155.789 1.40649C157.62 2.17173 159.277 3.3004 160.66 4.72434C162.133 6.1259 163.306 7.81255 164.107 9.68178C164.908 11.551 165.321 13.5638 165.321 15.5977C165.321 19.8381 163.808 23.7452 160.993 26.5317C159.585 28.0116 157.889 29.1884 156.011 29.9904C154.132 30.7924 152.11 31.2026 150.068 31.1961C145.619 31.1961 141.927 29.5908 139.021 26.5317C136.207 23.5938 134.784 19.9289 134.784 15.4766C134.603 11.3271 136.207 7.54113 139.142 4.60319ZM149.977 23.8058C154.214 23.8058 157.785 20.3227 157.785 15.4766C157.785 13.4001 156.961 11.4086 155.494 9.94033C154.027 8.47202 152.037 7.64714 149.962 7.64714C147.887 7.64714 145.897 8.47202 144.43 9.94033C142.963 11.4086 142.138 13.4001 142.138 15.4766C142.048 20.2621 145.861 23.8058 149.977 23.8058Z" fill="#1D1E25"/>
<path d="M166.713 30.6511V0.787109H173.311L184.236 17.3849V0.787109H191.5V30.6511H185.114L174.068 14.0533V30.6511H166.713Z" fill="#1D1E25"/>
</g>
<defs>
<clipPath id="clip0_1_4234">
<rect width="191" height="31.1967" fill="white" transform="translate(0.5 -0.000244141)"/>
</clipPath>
</defs>
</svg>
