<svg width="164" height="35" viewBox="0 0 164 35" fill="none" xmlns="http://www.w3.org/2000/svg">
<g clip-path="url(#clip0_1_4096)">
<path d="M57.8888 20.1588L56.9113 22.9262H56.8298C56.6669 22.3022 56.3682 21.3526 55.8795 20.2131L50.6391 7.05414H45.5073V28.027H48.9014V15.0852C48.9014 14.2712 48.9014 13.3487 48.8742 12.2092C48.8471 11.6394 48.7928 11.2053 48.7656 10.8797H48.8471C49.01 11.6937 49.2 12.2906 49.3358 12.6704L55.6351 27.9727H58.0245L64.2696 12.5348C64.4053 12.1821 64.5411 11.4766 64.6769 10.8797H64.7583C64.6769 12.4262 64.6226 13.81 64.5954 14.651V27.9456H68.2067V6.99988H63.2649L57.8888 20.1588ZM71.6278 12.9146H75.1576V27.9456H71.6278V12.9146ZM73.4199 6.56577C72.8225 6.56577 72.3338 6.78283 71.9265 7.16267C71.5192 7.54252 71.302 8.03089 71.302 8.62779C71.302 9.19756 71.5192 9.68593 71.9265 10.0658C72.3338 10.4456 72.8225 10.6355 73.4199 10.6355C74.0173 10.6355 74.5331 10.4185 74.9133 10.0658C75.3206 9.68593 75.5378 9.19756 75.5378 8.62779C75.5378 8.05802 75.3206 7.56965 74.9133 7.16267C74.5603 6.78283 74.0444 6.56577 73.4199 6.56577ZM87.6749 12.779C87.0232 12.6433 86.3444 12.5619 85.6927 12.5619C84.0908 12.5619 82.6245 12.9146 81.4027 13.62C80.1808 14.3255 79.2033 15.3022 78.5788 16.5231C77.9272 17.7712 77.6014 19.2092 77.6014 20.8642C77.6014 22.3022 77.9272 23.5774 78.5517 24.7441C79.1762 25.8836 80.0451 26.8061 81.2126 27.4301C82.3259 28.0541 83.6292 28.3797 85.0954 28.3797C86.7788 28.3797 88.2179 28.027 89.3583 27.3759L89.3855 27.3487V24.0929L89.2497 24.2014C88.7338 24.5813 88.1365 24.9069 87.5391 25.0968C86.9146 25.3138 86.3444 25.4224 85.8557 25.4224C84.4437 25.4224 83.3305 25.0154 82.5431 24.12C81.7285 23.2518 81.3212 22.058 81.3212 20.5658C81.3212 19.0193 81.7285 17.7983 82.5702 16.903C83.412 16.0076 84.5252 15.5464 85.8828 15.5464C87.0232 15.5464 88.1908 15.9262 89.2497 16.6859L89.3855 16.7945V13.3487L89.3583 13.3216C88.8967 13.1317 88.3808 12.9146 87.6749 12.779ZM99.3232 12.6704C98.4543 12.6704 97.6398 12.9417 96.9338 13.5115C96.3365 13.9999 95.9292 14.7053 95.5762 15.5464H95.549V12.9146H92.0192V27.9456H95.549V20.2673C95.549 18.965 95.8206 17.8797 96.4179 17.0929C97.0153 16.279 97.7755 15.872 98.6987 15.872C99.0245 15.872 99.3504 15.9534 99.7576 16.0076C100.138 16.1162 100.409 16.2247 100.599 16.3603L100.735 16.4689V12.9417L100.654 12.9146C100.409 12.7518 99.9206 12.6704 99.3232 12.6704ZM108.935 12.589C106.464 12.589 104.482 13.3216 103.097 14.7596C101.685 16.1976 101.007 18.1782 101.007 20.6743C101.007 23.0076 101.713 24.9069 103.07 26.2906C104.428 27.6472 106.274 28.3526 108.582 28.3526C110.999 28.3526 112.927 27.62 114.311 26.1549C115.723 24.6898 116.402 22.7363 116.402 20.3216C116.402 17.934 115.75 16.0348 114.42 14.651C113.144 13.2673 111.27 12.589 108.935 12.589ZM111.759 24.1472C111.107 24.9883 110.076 25.3952 108.799 25.3952C107.523 25.3952 106.491 24.9883 105.758 24.0929C105.025 23.2518 104.672 22.0309 104.672 20.4844C104.672 18.8836 105.052 17.6627 105.758 16.7945C106.491 15.9262 107.496 15.4921 108.772 15.4921C110.021 15.4921 110.999 15.8991 111.705 16.7402C112.411 17.5813 112.791 18.8022 112.791 20.403C112.736 22.0309 112.438 23.3061 111.759 24.1472ZM124.276 19.1549C123.163 18.6937 122.457 18.341 122.131 18.0425C121.86 17.7712 121.724 17.3914 121.724 16.903C121.724 16.496 121.887 16.089 122.294 15.8177C122.701 15.5464 123.163 15.4107 123.842 15.4107C124.439 15.4107 125.064 15.5193 125.661 15.6821C126.258 15.8448 126.801 16.089 127.236 16.4146L127.372 16.5231V13.2131L127.29 13.1859C126.883 13.0231 126.34 12.8603 125.688 12.7247C125.036 12.6162 124.439 12.5619 123.95 12.5619C122.267 12.5619 120.882 12.9689 119.796 13.8642C118.71 14.7053 118.194 15.8448 118.194 17.1743C118.194 17.8797 118.303 18.5038 118.547 19.0193C118.791 19.5348 119.144 20.0231 119.633 20.4301C120.122 20.81 120.828 21.2441 121.805 21.651C122.62 22.0038 123.244 22.2751 123.625 22.4921C124.005 22.7092 124.249 22.9534 124.439 23.1433C124.575 23.3603 124.656 23.6317 124.656 23.9844C124.656 24.9883 123.896 25.4766 122.348 25.4766C121.751 25.4766 121.127 25.3681 120.393 25.1239C119.66 24.8797 118.981 24.527 118.411 24.12L118.276 24.0115V27.4572L118.357 27.4844C118.873 27.7286 119.497 27.8914 120.258 28.0813C121.018 28.2169 121.697 28.3255 122.294 28.3255C124.113 28.3255 125.607 27.9185 126.666 27.0231C127.752 26.1549 128.322 25.0425 128.322 23.6045C128.322 22.6007 128.05 21.7053 127.453 21.027C126.666 20.3759 125.688 19.6976 124.276 19.1549ZM137.635 12.589C135.164 12.589 133.182 13.3216 131.797 14.7596C130.413 16.1976 129.707 18.1782 129.707 20.6743C129.707 23.0076 130.413 24.9069 131.77 26.2906C133.128 27.6472 134.974 28.3526 137.282 28.3526C139.699 28.3526 141.627 27.62 143.011 26.1549C144.423 24.6898 145.102 22.7363 145.102 20.3216C145.102 17.934 144.45 16.0348 143.12 14.651C141.844 13.2673 139.97 12.589 137.635 12.589ZM140.432 24.1472C139.78 24.9883 138.748 25.3952 137.472 25.3952C136.169 25.3952 135.164 24.9883 134.431 24.0929C133.698 23.2518 133.345 22.0309 133.345 20.4844C133.345 18.8836 133.725 17.6627 134.431 16.7945C135.164 15.9262 136.169 15.4921 137.445 15.4921C138.667 15.4921 139.672 15.8991 140.378 16.7402C141.083 17.5813 141.464 18.8022 141.464 20.403C141.464 22.0309 141.111 23.3061 140.432 24.1472ZM163.973 15.8177V12.9146H160.416V8.465L160.307 8.49213L156.94 9.49601L156.859 9.52314V12.9146H151.537V11.0154C151.537 10.1472 151.754 9.46887 152.134 9.03476C152.515 8.60066 153.085 8.3836 153.791 8.3836C154.28 8.3836 154.795 8.49213 155.366 8.73632L155.501 8.81771V5.75182L155.42 5.72469C154.931 5.5619 154.279 5.45337 153.438 5.45337C152.379 5.45337 151.456 5.69756 150.614 6.10453C149.772 6.56577 149.148 7.1898 148.686 8.03089C148.225 8.84484 147.98 9.76732 147.98 10.8255V12.9146H145.509V15.7906H147.98V27.9456H151.537V15.8177H156.859V23.5503C156.859 26.7247 158.352 28.3255 161.339 28.3255C161.828 28.3255 162.344 28.2441 162.832 28.1627C163.348 28.0541 163.729 27.9185 163.946 27.81L163.973 27.7828V24.8797L163.837 24.9883C163.62 25.1239 163.43 25.2324 163.104 25.3138C162.832 25.3952 162.588 25.4224 162.398 25.4224C161.692 25.4224 161.203 25.2596 160.85 24.8526C160.525 24.4727 160.362 23.8487 160.362 22.9262V15.8177H163.973Z" fill="#737373"/>
<path d="M0 0H16.6444V16.6318H0V0Z" fill="#F25022"/>
<path d="M18.382 0H35.0263V16.6318H18.382V0Z" fill="#7FBA00"/>
<path d="M0 18.3682H16.6444V34.9999H0V18.3682Z" fill="#00A4EF"/>
<path d="M18.382 18.3682H35.0263V34.9999H18.382V18.3682Z" fill="#FFB900"/>
</g>
<defs>
<clipPath id="clip0_1_4096">
<rect width="164" height="35" fill="white"/>
</clipPath>
</defs>
</svg>
