<svg width="215" height="76" viewBox="0 0 215 76" fill="none" xmlns="http://www.w3.org/2000/svg">
<rect width="215" height="76" fill="white"/>
<g clip-path="url(#clip0_1_4095)">
<path d="M83.8888 40.1588L82.9113 42.9262H82.8298C82.6669 42.3022 82.3682 41.3526 81.8795 40.2131L76.6391 27.0541H71.5073V48.027H74.9014V35.0852C74.9014 34.2712 74.9014 33.3487 74.8742 32.2092C74.8471 31.6394 74.7928 31.2053 74.7656 30.8797H74.8471C75.01 31.6937 75.2 32.2906 75.3358 32.6704L81.6351 47.9727H84.0245L90.2696 32.5348C90.4053 32.1821 90.5411 31.4766 90.6769 30.8797H90.7583C90.6769 32.4262 90.6226 33.81 90.5954 34.651V47.9456H94.2067V26.9999H89.2649L83.8888 40.1588ZM97.6278 32.9146H101.158V47.9456H97.6278V32.9146ZM99.4199 26.5658C98.8225 26.5658 98.3338 26.7828 97.9265 27.1627C97.5192 27.5425 97.302 28.0309 97.302 28.6278C97.302 29.1976 97.5192 29.6859 97.9265 30.0658C98.3338 30.4456 98.8225 30.6355 99.4199 30.6355C100.017 30.6355 100.533 30.4185 100.913 30.0658C101.321 29.6859 101.538 29.1976 101.538 28.6278C101.538 28.058 101.321 27.5696 100.913 27.1627C100.56 26.7828 100.044 26.5658 99.4199 26.5658ZM113.675 32.779C113.023 32.6433 112.344 32.5619 111.693 32.5619C110.091 32.5619 108.625 32.9146 107.403 33.62C106.181 34.3255 105.203 35.3022 104.579 36.5231C103.927 37.7712 103.601 39.2092 103.601 40.8642C103.601 42.3022 103.927 43.5774 104.552 44.7441C105.176 45.8836 106.045 46.8061 107.213 47.4301C108.326 48.0541 109.629 48.3797 111.095 48.3797C112.779 48.3797 114.218 48.027 115.358 47.3759L115.385 47.3487V44.0929L115.25 44.2014C114.734 44.5813 114.136 44.9069 113.539 45.0968C112.915 45.3138 112.344 45.4224 111.856 45.4224C110.444 45.4224 109.33 45.0154 108.543 44.12C107.729 43.2518 107.321 42.058 107.321 40.5658C107.321 39.0193 107.729 37.7983 108.57 36.903C109.412 36.0076 110.525 35.5464 111.883 35.5464C113.023 35.5464 114.191 35.9262 115.25 36.6859L115.385 36.7945V33.3487L115.358 33.3216C114.897 33.1317 114.381 32.9146 113.675 32.779ZM125.323 32.6704C124.454 32.6704 123.64 32.9417 122.934 33.5115C122.336 33.9999 121.929 34.7053 121.576 35.5464H121.549V32.9146H118.019V47.9456H121.549V40.2673C121.549 38.965 121.821 37.8797 122.418 37.0929C123.015 36.279 123.776 35.872 124.699 35.872C125.025 35.872 125.35 35.9534 125.758 36.0076C126.138 36.1162 126.409 36.2247 126.599 36.3603L126.735 36.4689V32.9417L126.654 32.9146C126.409 32.7518 125.921 32.6704 125.323 32.6704ZM134.935 32.589C132.464 32.589 130.482 33.3216 129.097 34.7596C127.685 36.1976 127.007 38.1782 127.007 40.6743C127.007 43.0076 127.713 44.9069 129.07 46.2906C130.428 47.6472 132.274 48.3526 134.582 48.3526C136.999 48.3526 138.927 47.62 140.311 46.1549C141.723 44.6898 142.402 42.7363 142.402 40.3216C142.402 37.934 141.75 36.0348 140.42 34.651C139.144 33.2673 137.27 32.589 134.935 32.589ZM137.759 44.1472C137.107 44.9883 136.076 45.3952 134.799 45.3952C133.523 45.3952 132.491 44.9883 131.758 44.0929C131.025 43.2518 130.672 42.0309 130.672 40.4844C130.672 38.8836 131.052 37.6627 131.758 36.7945C132.491 35.9262 133.496 35.4921 134.772 35.4921C136.021 35.4921 136.999 35.8991 137.705 36.7402C138.411 37.5813 138.791 38.8022 138.791 40.403C138.736 42.0309 138.438 43.3061 137.759 44.1472ZM150.276 39.1549C149.163 38.6937 148.457 38.341 148.131 38.0425C147.86 37.7712 147.724 37.3914 147.724 36.903C147.724 36.496 147.887 36.089 148.294 35.8177C148.701 35.5464 149.163 35.4107 149.842 35.4107C150.439 35.4107 151.064 35.5193 151.661 35.6821C152.258 35.8448 152.801 36.089 153.236 36.4146L153.372 36.5231V33.2131L153.29 33.1859C152.883 33.0231 152.34 32.8603 151.688 32.7247C151.036 32.6162 150.439 32.5619 149.95 32.5619C148.267 32.5619 146.882 32.9689 145.796 33.8642C144.71 34.7053 144.194 35.8448 144.194 37.1743C144.194 37.8797 144.303 38.5038 144.547 39.0193C144.791 39.5348 145.144 40.0231 145.633 40.4301C146.122 40.81 146.828 41.2441 147.805 41.651C148.62 42.0038 149.244 42.2751 149.625 42.4921C150.005 42.7092 150.249 42.9534 150.439 43.1433C150.575 43.3603 150.656 43.6317 150.656 43.9844C150.656 44.9883 149.896 45.4766 148.348 45.4766C147.751 45.4766 147.127 45.3681 146.393 45.1239C145.66 44.8797 144.981 44.527 144.411 44.12L144.276 44.0115V47.4572L144.357 47.4844C144.873 47.7286 145.497 47.8914 146.258 48.0813C147.018 48.2169 147.697 48.3255 148.294 48.3255C150.113 48.3255 151.607 47.9185 152.666 47.0231C153.752 46.1549 154.322 45.0425 154.322 43.6045C154.322 42.6007 154.05 41.7053 153.453 41.027C152.666 40.3759 151.688 39.6976 150.276 39.1549ZM163.635 32.589C161.164 32.589 159.182 33.3216 157.797 34.7596C156.413 36.1976 155.707 38.1782 155.707 40.6743C155.707 43.0076 156.413 44.9069 157.77 46.2906C159.128 47.6472 160.974 48.3526 163.282 48.3526C165.699 48.3526 167.627 47.62 169.011 46.1549C170.423 44.6898 171.102 42.7363 171.102 40.3216C171.102 37.934 170.45 36.0348 169.12 34.651C167.844 33.2673 165.97 32.589 163.635 32.589ZM166.432 44.1472C165.78 44.9883 164.748 45.3952 163.472 45.3952C162.169 45.3952 161.164 44.9883 160.431 44.0929C159.698 43.2518 159.345 42.0309 159.345 40.4844C159.345 38.8836 159.725 37.6627 160.431 36.7945C161.164 35.9262 162.169 35.4921 163.445 35.4921C164.667 35.4921 165.672 35.8991 166.378 36.7402C167.083 37.5813 167.464 38.8022 167.464 40.403C167.464 42.0309 167.111 43.3061 166.432 44.1472ZM189.973 35.8177V32.9146H186.416V28.465L186.307 28.4921L182.94 29.496L182.859 29.5231V32.9146H177.537V31.0154C177.537 30.1472 177.754 29.4689 178.134 29.0348C178.515 28.6007 179.085 28.3836 179.791 28.3836C180.28 28.3836 180.795 28.4921 181.366 28.7363L181.501 28.8177V25.7518L181.42 25.7247C180.931 25.5619 180.279 25.4534 179.438 25.4534C178.379 25.4534 177.456 25.6976 176.614 26.1045C175.772 26.5658 175.148 27.1898 174.686 28.0309C174.225 28.8448 173.98 29.7673 173.98 30.8255V32.9146H171.509V35.7906H173.98V47.9456H177.537V35.8177H182.859V43.5503C182.859 46.7247 184.352 48.3255 187.339 48.3255C187.828 48.3255 188.344 48.2441 188.832 48.1627C189.348 48.0541 189.729 47.9185 189.946 47.81L189.973 47.7828V44.8797L189.837 44.9883C189.62 45.1239 189.43 45.2324 189.104 45.3138C188.832 45.3952 188.588 45.4224 188.398 45.4224C187.692 45.4224 187.203 45.2596 186.85 44.8526C186.525 44.4727 186.362 43.8487 186.362 42.9262V35.8177H189.973Z" fill="#737373"/>
<path d="M26 20H42.6444V36.6318H26V20Z" fill="#F25022"/>
<path d="M44.382 20H61.0263V36.6318H44.382V20Z" fill="#7FBA00"/>
<path d="M26 38.3682H42.6444V54.9999H26V38.3682Z" fill="#00A4EF"/>
<path d="M44.382 38.3682H61.0263V54.9999H44.382V38.3682Z" fill="#FFB900"/>
</g>
<defs>
<clipPath id="clip0_1_4095">
<rect width="164" height="35" fill="white" transform="translate(26 20)"/>
</clipPath>
</defs>
</svg>
