<svg width="215" height="76" viewBox="0 0 215 76" fill="none" xmlns="http://www.w3.org/2000/svg">
<rect width="215" height="76" fill="white"/>
<g clip-path="url(#clip0_1_4080)">
<path d="M36.1596 14.2429L64.929 12.0831C68.4213 11.7508 69.3359 12 71.5809 13.5783L80.8104 20.0576C82.3071 21.1374 82.806 21.4697 82.806 22.7157V58.1853C82.806 60.4282 81.9745 61.7572 79.1474 61.9234L45.7217 63.917C43.5599 64 42.5621 63.7508 41.4812 62.3387L34.7461 53.6167C33.4989 51.9553 33 50.7924 33 49.3802V17.8147C33 15.9873 33.8315 14.409 36.1596 14.2429Z" fill="white"/>
<path fill-rule="evenodd" clip-rule="evenodd" d="M64.929 12.0831L36.1596 14.2429C33.8315 14.409 33 15.9873 33 17.8148V49.3803C33 50.7924 33.4989 52.0384 34.7461 53.6167L41.4812 62.4218C42.5621 63.8339 43.643 64.1662 45.7217 64.0001L79.1474 62.0065C81.9745 61.8403 82.806 60.5112 82.806 58.2684V22.7157C82.806 21.5528 82.3902 21.2205 80.9767 20.2237C80.8936 20.1406 80.8104 20.1406 80.7273 20.0576L71.5809 13.6614C69.4191 12.0001 68.5044 11.8339 64.929 12.0831ZM46.4701 22.1342C43.7262 22.3004 43.1441 22.3835 41.5643 21.0544L37.6563 17.9809C37.2406 17.5656 37.4069 17.0672 38.4878 16.9841L66.1763 14.9905C68.5044 14.8243 69.6685 15.5719 70.5831 16.3196L75.3226 19.7253C75.5721 19.8084 76.071 20.3898 75.4058 20.3898L46.8027 22.1342H46.4701ZM43.3104 57.9362V27.7828C43.3104 26.4537 43.7262 25.8723 44.8902 25.7892L77.7339 23.8787C78.8149 23.7956 79.3137 24.4601 79.3137 25.7892V55.6934C79.3137 57.0224 79.0643 58.1023 77.3182 58.1854L45.888 60.0128C44.1419 60.179 43.3104 59.5144 43.3104 57.9362ZM74.3248 29.4442C74.4911 30.3579 74.3248 31.2716 73.4102 31.3547L71.9135 31.687V53.9489C70.5831 54.6965 69.4191 55.0288 68.4213 55.0288C66.8415 55.0288 66.4257 54.5304 65.1785 53.0352L55.2007 37.4186V52.4537L58.3603 53.2013C58.3603 53.2013 58.3603 55.0288 55.8659 55.0288L48.8814 55.4442C48.7151 55.0288 48.8814 54.032 49.5466 53.8659L51.3758 53.3675V33.4314L48.8814 33.1822C48.7151 32.2684 49.214 30.9394 50.6275 30.8563L58.1109 30.3579L68.4213 46.1406V32.1854L65.7605 31.8531C65.5942 30.7732 66.3426 29.9426 67.3404 29.8595L74.3248 29.4442Z" fill="#1D1E25"/>
<path d="M104.924 48.8819V35.1758H105.173L115.068 48.8819H118.227V28.6966H114.735V42.4027H114.486L104.591 28.6966H101.431V48.8819H104.924ZM127.956 49.1311C132.529 49.1311 135.273 46.1407 135.273 41.1567C135.273 36.2557 132.446 33.1822 127.956 33.1822C123.382 33.1822 120.639 36.1727 120.639 41.1567C120.555 46.1407 123.382 49.1311 127.956 49.1311ZM127.956 46.2238C125.544 46.2238 124.131 44.3963 124.131 41.1567C124.131 38.0001 125.544 36.0896 127.956 36.0896C130.367 36.0896 131.781 37.9171 131.781 41.1567C131.697 44.3963 130.367 46.2238 127.956 46.2238ZM138.432 29.8596V33.6806H136.021V36.4219H138.432V44.7286C138.432 47.719 139.846 48.8819 143.338 48.8819C144.003 48.8819 144.669 48.7989 145.167 48.7158V46.0576C144.752 46.1407 144.502 46.1407 144.003 46.1407C142.59 46.1407 141.925 45.4762 141.925 43.981V36.5049H145.167V33.7637H141.925V29.9426H138.432V29.8596ZM147.246 48.8819H150.738V33.5976H147.246V48.8819ZM148.992 31.0225C150.156 31.0225 151.071 30.1088 151.071 28.9458C151.071 27.7829 150.156 26.8691 148.992 26.8691C147.828 26.8691 146.914 27.7829 146.914 28.9458C146.914 30.1088 147.828 31.0225 148.992 31.0225ZM160.217 49.1311C164.79 49.1311 167.534 46.1407 167.534 41.1567C167.534 36.2557 164.707 33.1822 160.217 33.1822C155.644 33.1822 152.9 36.1727 152.9 41.1567C152.817 46.1407 155.644 49.1311 160.217 49.1311ZM160.217 46.2238C157.806 46.2238 156.392 44.3963 156.392 41.1567C156.392 38.0001 157.806 36.0896 160.217 36.0896C162.629 36.0896 164.042 37.9171 164.042 41.1567C163.959 44.3963 162.629 46.2238 160.217 46.2238ZM169.613 48.8819H173.105V39.9107C173.105 37.6679 174.436 36.2557 176.431 36.2557C178.51 36.2557 179.508 37.4187 179.508 39.7445V48.7989H183V38.9139C183 35.2589 181.171 33.1822 177.762 33.1822C175.517 33.1822 173.937 34.2621 173.188 35.9235H172.939V33.5976H169.613V48.8819Z" fill="#1D1E25"/>
</g>
<defs>
<clipPath id="clip0_1_4080">
<rect width="150" height="52" fill="white" transform="translate(33 12)"/>
</clipPath>
</defs>
</svg>
