<svg width="136" height="24" viewBox="0 0 136 24" fill="none" xmlns="http://www.w3.org/2000/svg">
<path d="M10.8587 4.7126C11.218 3.60703 12.7821 3.60703 13.1413 4.7126L14.4248 8.66276C14.5854 9.15719 15.0462 9.49194 15.566 9.49194H19.7195C20.8819 9.49194 21.3653 10.9795 20.4248 11.6628L17.0646 14.1041C16.644 14.4097 16.468 14.9513 16.6287 15.4457L17.9122 19.3959C18.2714 20.5015 17.006 21.4208 16.0656 20.7375L12.7053 18.2962C12.2848 17.9906 11.7152 17.9906 11.2947 18.2962L7.93446 20.7375C6.994 21.4208 5.72863 20.5015 6.08785 19.3959L7.37133 15.4457C7.53198 14.9513 7.35599 14.4097 6.93541 14.1041L3.5752 11.6628C2.63475 10.9795 3.11808 9.49194 4.28055 9.49194H8.43399C8.95386 9.49194 9.41461 9.15719 9.57525 8.66276L10.8587 4.7126Z" fill="#FFC046"/>
<path d="M38.8587 4.7126C39.218 3.60703 40.7821 3.60703 41.1413 4.7126L42.4248 8.66276C42.5854 9.15719 43.0462 9.49194 43.566 9.49194H47.7195C48.8819 9.49194 49.3653 10.9795 48.4248 11.6628L45.0646 14.1041C44.644 14.4097 44.468 14.9513 44.6287 15.4457L45.9122 19.3959C46.2714 20.5015 45.006 21.4208 44.0656 20.7375L40.7053 18.2962C40.2848 17.9906 39.7152 17.9906 39.2947 18.2962L35.9345 20.7375C34.994 21.4208 33.7286 20.5015 34.0878 19.3959L35.3713 15.4457C35.532 14.9513 35.356 14.4097 34.9354 14.1041L31.5752 11.6628C30.6347 10.9795 31.1181 9.49194 32.2805 9.49194H36.434C36.9539 9.49194 37.4146 9.15719 37.5753 8.66276L38.8587 4.7126Z" fill="#FFC046"/>
<path d="M66.8587 4.7126C67.218 3.60703 68.7821 3.60703 69.1413 4.7126L70.4248 8.66276C70.5854 9.15719 71.0462 9.49194 71.566 9.49194H75.7195C76.8819 9.49194 77.3653 10.9795 76.4248 11.6628L73.0646 14.1041C72.644 14.4097 72.468 14.9513 72.6287 15.4457L73.9122 19.3959C74.2714 20.5015 73.006 21.4208 72.0656 20.7375L68.7053 18.2962C68.2848 17.9906 67.7152 17.9906 67.2947 18.2962L63.9345 20.7375C62.994 21.4208 61.7286 20.5015 62.0878 19.3959L63.3713 15.4457C63.532 14.9513 63.356 14.4097 62.9354 14.1041L59.5752 11.6628C58.6347 10.9795 59.1181 9.49194 60.2805 9.49194H64.434C64.9539 9.49194 65.4146 9.15719 65.5753 8.66276L66.8587 4.7126Z" fill="#FFC046"/>
<path d="M94.8587 4.7126C95.218 3.60703 96.782 3.60703 97.1413 4.7126L98.4248 8.66276C98.5854 9.15719 99.0461 9.49194 99.566 9.49194H103.719C104.882 9.49194 105.365 10.9795 104.425 11.6628L101.065 14.1041C100.644 14.4097 100.468 14.9513 100.629 15.4457L101.912 19.3959C102.271 20.5015 101.006 21.4208 100.066 20.7375L96.7053 18.2962C96.2848 17.9906 95.7152 17.9906 95.2947 18.2962L91.9345 20.7375C90.994 21.4208 89.7286 20.5015 90.0878 19.3959L91.3713 15.4457C91.532 14.9513 91.356 14.4097 90.9354 14.1041L87.5752 11.6628C86.6347 10.9795 87.1181 9.49194 88.2805 9.49194H92.434C92.9539 9.49194 93.4146 9.15719 93.5752 8.66276L94.8587 4.7126Z" fill="#FFC046"/>
<path d="M122.859 4.7126C123.218 3.60703 124.782 3.60703 125.141 4.7126L126.425 8.66276C126.585 9.15719 127.046 9.49194 127.566 9.49194H131.719C132.882 9.49194 133.365 10.9795 132.425 11.6628L129.065 14.1041C128.644 14.4097 128.468 14.9513 128.629 15.4457L129.912 19.3959C130.271 20.5015 129.006 21.4208 128.066 20.7375L124.705 18.2962C124.285 17.9906 123.715 17.9906 123.295 18.2962L119.934 20.7375C118.994 21.4208 117.729 20.5015 118.088 19.3959L119.371 15.4457C119.532 14.9513 119.356 14.4097 118.935 14.1041L115.575 11.6628C114.635 10.9795 115.118 9.49194 116.281 9.49194H120.434C120.954 9.49194 121.415 9.15719 121.575 8.66276L122.859 4.7126Z" fill="#FFC046"/>
</svg>
